<svg width="359" height="344" viewBox="0 0 359 344" fill="none" xmlns="http://www.w3.org/2000/svg">
<path d="M6.79688 14.2008L24.5969 26.1008L28.8969 21.6008L22.1969 2.30078L6.79688 14.2008Z" fill="#091A05"/>
<path d="M0.296875 47L22.4969 45.2L24.1969 28.3L5.99689 15.5L0.296875 47Z" fill="#071803"/>
<path d="M4.19998 70.2024L5.5 72.8024L25.6 63.8024L22.8 46.9023L0 48.8024L4.19998 70.2024Z" fill="#091A05"/>
<path d="M16.2984 85.7024L20.8984 89.0023L30.4984 72.4023L25.4984 66.4023L6.89844 74.4023L16.2984 85.7024Z" fill="#091905"/>
<path d="M27.8938 94.9L46.7938 103.6L53.7938 83.4L32.4938 73.5L22.5938 91L27.8938 94.9Z" fill="#0F1F0B"/>
<path d="M48.3984 105.103L65.1984 106.103L58.1984 84.0031L55.3984 83.2031L48.3984 105.103Z" fill="#10200C"/>
<path d="M60 85L66.5 104.9L76.6 96.8L60 85Z" fill="#1F2E1B"/>
<path d="M60.5 84.0008L77.1 95.6008L80.6 82.3008L60.5 84.0008Z" fill="#555F50"/>
<path d="M60.6953 81.9L80.3953 80.2L75.4953 68.5L60.6953 81.9Z" fill="#F2EDEA"/>
<path d="M42.6953 72.7008L58.2953 81.1008L73.8953 67.2008L49.2953 52.8008L42.6953 72.7008Z" fill="#E2DFDA"/>
<path d="M33.8984 69.5031L40.2984 71.9031L47.5984 52.0031L45.3984 51.2031L33.8984 69.5031Z" fill="#E3E0DC"/>
<path d="M39.4 58.2016L46 40.5016L26.5 38.6016L28.6 62.1016L39.4 58.2016Z" fill="#DFDCD7"/>
<path d="M69.2984 44.1031L67.4984 43.2031L49.3984 41.7031L50.2984 51.1031L62.4984 57.8031L69.2984 44.1031Z" fill="#EFEBE8"/>
<path d="M40.1 27.9023L38 37.9023L64.9 39.9023L40.1 27.9023Z" fill="#7E8478"/>
<path d="M90.2953 55.3031L70.7953 45.7031L63.6953 58.8031L84.8953 69.7031L90.2953 55.3031Z" fill="#DBD9D4"/>
<path d="M86.3984 76.3016L102.798 82.6016L114.198 66.0016L92.6984 57.1016L86.3984 76.3016Z" fill="#E4E0DC"/>
<path d="M104.398 84.4016L131.098 96.6016L138.198 77.7016L117.398 68.1016L104.398 84.4016Z" fill="#E7E3E0"/>
<path d="M132.195 98.7L156.295 109.3L167.295 91.1L139.395 79L132.195 98.7Z" fill="#DCD9D4"/>
<path d="M158.898 111.201L175.898 119.401L185.698 100.001L168.698 91.8008L158.898 111.201Z" fill="#E8E4E1"/>
<path d="M179 120.202L198.8 130.102L208.6 111.002L188.8 101.102L179 120.202Z" fill="#E1DEDA"/>
<path d="M200.695 131.302L222.395 142.402L232.795 122.902L211.395 111.902L200.695 131.302Z" fill="#DCD9D5"/>
<path d="M225.195 143.302L243.595 153.402L258.195 137.602L234.795 123.902L225.195 143.302Z" fill="#E3E0DB"/>
<path d="M260.394 139.5L245.094 153.7L258.594 158.8L260.394 139.5Z" fill="#F8F3F1"/>
<path d="M260.5 160.003L278.7 156.303L266.5 138.303L262.3 138.203L260.5 160.003Z" fill="#F5F0EE"/>
<path d="M268.094 138.303L280.094 154.903L290.894 141.603L270.894 135.203L268.094 138.303Z" fill="#F5EFED"/>
<path d="M270.398 131.903L292.198 138.103L293.798 112.703H270.798L270.398 131.903Z" fill="#F1ECE9"/>
<path d="M270.898 108.7H293.698L292.698 94.5H269.898L270.898 108.7Z" fill="#EBE6E3"/>
<path d="M24.8984 0L30.4984 22.3L36.0984 23.5L45.6984 2.60001L24.8984 0Z" fill="#0B1B07"/>
<path d="M38.8984 23.7008L55.9984 33.7008L65.1984 13.8008L47.1984 3.30078L38.8984 23.7008Z" fill="#142410"/>
<path d="M79.2938 44.9008L89.3938 24.9008L68.2938 14.3008L58.0938 34.5008L79.2938 44.9008Z" fill="#162612"/>
<path d="M109.998 36.7024L91.2984 26.9023L81.3984 45.1024L102.198 56.0023L109.998 36.7024Z" fill="#172713"/>
<path d="M104 57.9016L128.7 69.8016L138.4 49.6016L112.1 37.1016L104 57.9016Z" fill="#21301D"/>
<path d="M149.195 79.2008L159.195 58.9008L139.995 49.8008L130.695 70.7008L149.195 79.2008Z" fill="#192815"/>
<path d="M183.597 70.4023L161.097 60.4023L150.797 79.3024L177.297 90.8024L183.597 70.4023Z" fill="#1D2C18"/>
<path d="M203.594 103.802L209.994 83.2016L184.894 71.6016L178.594 92.1016L203.594 103.802Z" fill="#1C2B18"/>
<path d="M204.797 104.502L224.097 113.002L237.397 96.9023L211.097 85.4023L204.797 104.502Z" fill="#10210C"/>
<path d="M227.297 115.203L247.597 124.703L259.197 107.903L239.097 98.7031L227.297 115.203Z" fill="#152511"/>
<path d="M247 93.1016L247.3 100.002L261.9 106.702L256.2 115.102H267.4V93.1016H247Z" fill="#071803"/>
<path d="M267.3 89.8008L267.6 78.7008L252.2 65.3008L247.5 89.8008H267.3Z" fill="#071803"/>
<path d="M252.195 63.7016L269.195 77.6016L272.095 75.2016L266.995 54.1016L252.195 63.7016Z" fill="#091905"/>
<path d="M288.894 56.6016L268.594 54.1016L273.794 74.5016L279.994 75.6016L288.894 56.6016Z" fill="#0B1C07"/>
<path d="M311.095 68.6008L290.695 58.8008L282.195 76.3008L304.795 87.5008L311.095 68.6008Z" fill="#192815"/>
<path d="M323.2 98.3L333.4 79.5L313.5 69L307 90L323.2 98.3Z" fill="#152511"/>
<path d="M353.198 98.7008L351.698 95.2008L335.098 79.8008L324.898 99.5008L334.698 107.501L353.198 98.7008Z" fill="#12220E"/>
<path d="M336.197 121.301H358.297L356.197 105.001L354.097 100.801L335.297 108.601L336.197 121.301Z" fill="#0B1B07"/>
<path d="M356.998 148.402L357.998 141.902L358.198 124.402H336.398L336.698 143.402L356.998 148.402Z" fill="#081905"/>
<path d="M336.898 145.301L350.198 160.001L352.798 158.101L356.598 152.201L356.898 150.201L336.898 145.301Z" fill="#071803"/>
<path d="M336 146.102L337.8 166.602L345.2 163.502L349.5 160.502L336 146.102Z" fill="#081904"/>
<path d="M334.6 145.301L322.5 163.601L336.4 167.401L334.6 145.301Z" fill="#152410"/>
<path d="M333.097 145.301L313.797 152.201L321.597 162.801L333.097 145.301Z" fill="#11210D"/>
<path d="M333.894 143.902L334.394 122.902H312.094L312.694 151.002L333.894 143.902Z" fill="#B4B5AD"/>
<path d="M312.5 121.7H334.1L332 110L312.8 121L312.5 121.7Z" fill="#F5F0EE"/>
<path d="M311.697 119.202L331.997 109.102L301.697 91.4023L294.297 102.802L294.597 111.902L311.697 119.202Z" fill="#C7C6C0"/>
<path d="M285.594 92.0008H298.894L300.294 89.8008L290.494 85.3008L285.594 92.0008Z" fill="#B7B8B0"/>
<path d="M81.7984 92.4023L77.8984 106.402L99.1984 101.902L102.098 99.3024L81.7984 92.4023Z" fill="#465141"/>
<path d="M77.6953 108.3L84.1953 127.3L101.795 113.7L99.2953 103.5L77.6953 108.3Z" fill="#7C8276"/>
<path d="M84.7969 128.403L106.797 141.303L118.697 122.303L102.797 114.703L84.7969 128.403Z" fill="#B4B5AE"/>
<path d="M107.898 142.202L117.298 154.302L138.598 146.702L119.698 122.902L107.898 142.202Z" fill="#BBBBB4"/>
<path d="M117.5 155.502L122.6 165.702L139.7 151.402L139.3 148.602L117.5 155.502Z" fill="#F9F3F1"/>
<path d="M133.094 158.4L138.394 169.9L141.694 168.6L139.494 152.5L133.094 158.4Z" fill="#F9F3F1"/>
<path d="M159.698 161.402L160.898 139.402L140.898 147.602L143.598 168.002L159.698 161.402Z" fill="#C6C6BF"/>
<path d="M161.195 160.302L176.595 163.702L189.095 147.102L162.395 140.602L161.195 160.302Z" fill="#545E4E"/>
<path d="M178.297 165.702L193.297 176.102L194.797 154.902L189.497 147.902L178.297 165.702Z" fill="#82887C"/>
<path d="M196.297 164.202L205.197 172.202L207.497 170.102L196.797 155.602L196.297 164.202Z" fill="#414D3C"/>
<path d="M214.7 162.802L204.6 144.602L195.5 152.002L208.5 167.902L214.7 162.802Z" fill="#455140"/>
<path d="M114.198 116.403L123.598 96.8031L104.398 88.2031V111.903L114.198 116.403Z" fill="#A2A49B"/>
<path d="M98.1953 85L94.6953 95L102.895 97.7V87.1L98.1953 85Z" fill="#EFEAE7"/>
<path d="M114.898 117.302L133.798 126.002L143.998 107.002L124.498 98.1016L114.898 117.302Z" fill="#8E9287"/>
<path d="M162.697 115.9L145.197 108L135.797 127.2L155.197 135.6L162.697 115.9Z" fill="#90958A"/>
<path d="M158.195 136.503L180.395 139.703L186.595 126.703L165.495 116.203L158.195 136.503Z" fill="#BFBFB8"/>
<path d="M197.797 147.103L209.097 138.003L190.497 128.203L181.797 142.603L197.797 147.103Z" fill="#D0CFC9"/>
<path d="M209.797 150.603L214.897 141.003L210.897 139.203L206.797 145.203L209.797 150.603Z" fill="#F2EDEA"/>
<path d="M49.8938 107.302L41.9938 106.902L38.0938 109.802L54.3938 120.402L49.8938 107.302Z" fill="#071803"/>
<path d="M33.8984 127.602L54.7984 125.902L54.6984 122.702L37.3984 110.902L33.8984 127.602Z" fill="#071803"/>
<path d="M34.0938 130.003L38.4938 151.803L57.4938 142.803L54.8938 128.203L34.0938 130.003Z" fill="#081904"/>
<path d="M55.2969 171.502L65.8969 151.902L58.7969 144.102L38.7969 153.302L55.2969 171.502Z" fill="#091A05"/>
<path d="M58.0938 171.701L74.0938 178.801L87.5938 163.601L67.8938 153.801L58.0938 171.701Z" fill="#0E1E0A"/>
<path d="M87.9984 193.903L94.6984 175.603L81.9984 174.203L65.7984 191.203L64.8984 193.903H87.9984Z" fill="#202F1C"/>
<path d="M67.5969 219.602L87.9969 214.902L87.3969 197.102H65.2969L66.1969 214.402L67.5969 219.602Z" fill="#0B1C08"/>
<path d="M69.9953 226.302L77.7953 240.902L90.9953 225.602L87.4953 218.102L69.1953 222.902L69.9953 226.302Z" fill="#0A1B06"/>
<path d="M78 242.301L91 247.401L92.8 227.301L78 242.301Z" fill="#071803"/>
<path d="M93.7938 226.102L92.0938 248.102H96.4938V226.102H93.7938Z" fill="#0C1D08"/>
<path d="M109.795 236.401L108.995 235.801L98.6953 239.301V252.601L109.795 236.401Z" fill="#081904"/>
<path d="M98.5 254.2L104 257.1L111.4 236.8L110.8 236.5L98.5 254.2Z" fill="#071803"/>
<path d="M108.694 248.5L107.094 253.4L114.794 259.4L118.694 251.1L108.694 248.5Z" fill="#0B1C07"/>
<path d="M96.9969 255.8L92.4969 250.5L78.7969 263.7L94.5969 279.2L103.197 270.8V258.9L96.9969 255.8Z" fill="#091A05"/>
<path d="M113.7 260.4L105.5 259V269.7L113.7 260.4Z" fill="#273623"/>
<path d="M58.0938 284.803L73.7938 300.503L93.7938 280.603L77.7938 264.703L58.0938 284.803Z" fill="#1A2916"/>
<path d="M72.8969 301.303L57.1969 287.203L44.7969 305.603L44.2969 307.703L65.7969 310.903L72.8969 301.303Z" fill="#0B1B07"/>
<path d="M65.7 313.903L43.9 310.703L43.5 312.603L45 320.403L47.4 325.703L66.2 316.403L65.7 313.903Z" fill="#0E1E0A"/>
<path d="M49.8984 329.802L60.3984 337.802L68.4984 320.602L65.8984 318.602L48.8984 327.402L49.8984 329.802Z" fill="#0A1B06"/>
<path d="M63.9984 340.001L85.1984 342.301L81.7984 321.701L70.9984 320.801L62.8984 339.101L63.9984 340.001Z" fill="#0D1D09"/>
<path d="M88.9953 343.202L114.495 337.602L108.195 316.402L85.6953 320.702L88.9953 343.202Z" fill="#1D2C19"/>
<path d="M117.998 336.503L133.598 326.803L117.298 314.703L111.898 316.803L117.998 336.503Z" fill="#0C1D08"/>
<path d="M117.898 313.202L135.198 326.202L138.698 312.602L117.898 313.202Z" fill="#081904"/>
<path d="M140.5 313.203L138.5 319.903L144.5 318.503L140.5 313.203Z" fill="#071803"/>
<path d="M131.398 300.1L129.898 300V311H139.298L131.398 300.1Z" fill="#0F200B"/>
<path d="M133.297 299.803L144.997 317.803L153.697 306.203L134.197 299.203L133.297 299.803Z" fill="#071803"/>
<path d="M134.297 298.102L154.497 305.102L155.697 297.902L134.797 293.402L134.297 298.102Z" fill="#0E1F0A"/>
<path d="M147.398 283.102L146.898 294.502L156.998 296.502L147.398 283.102Z" fill="#0A1A06"/>
<path d="M149.297 283.6L160.997 300L169.697 289.4L150.097 283L149.297 283.6Z" fill="#071803"/>
<path d="M150.894 281.2L169.694 287.9L169.994 281.6L150.594 278L150.894 281.2Z" fill="#0B1C07"/>
<path d="M183.497 274.8L164.097 264L157.297 267.6L162.497 278.7L175.697 280.9L183.497 274.8Z" fill="#10210C"/>
<path d="M165.5 263.601L183.6 273.201L185.5 268.001L166.7 259.801L165.5 263.601Z" fill="#0D1D09"/>
<path d="M196.594 263.3L180.794 249.5L176.594 251.3L178.594 262.9L187.194 266.7L196.594 263.3Z" fill="#091A05"/>
<path d="M182.594 249.703L197.494 262.303L202.494 251.303L182.594 249.703Z" fill="#071803"/>
<path d="M194.594 235.301L194.094 248.101L204.194 248.901L194.594 235.301Z" fill="#081904"/>
<path d="M195.5 234.803L208.1 252.803L217.5 241.203L196.4 234.203L195.5 234.803Z" fill="#071803"/>
<path d="M197.298 233.3L217.298 239.6L217.798 231.8L196.898 230.5L197.298 233.3Z" fill="#081904"/>
<path d="M207.695 218.402V228.802L220.895 229.602L224.495 223.802L207.695 218.402Z" fill="#2A3826"/>
<path d="M225.7 225.301L218 245.501L245.4 256.401V234.801L225.7 225.301Z" fill="#192815"/>
<path d="M248.398 257.202L268.098 255.902L264.898 234.102L248.398 234.902V257.202Z" fill="#1C2B17"/>
<path d="M270.597 254.402L289.197 250.902L298.897 247.302L290.097 230.402L266.797 234.702L270.597 254.402Z" fill="#10200C"/>
<path d="M305.8 244.503L323.8 229.803L304.9 219.703L291.5 228.603L300 246.903L305.8 244.503Z" fill="#12220E"/>
<path d="M306.195 218.603L324.395 228.303L326.895 215.203L306.195 218.603Z" fill="#081904"/>
<path d="M305.598 216.702L325.598 213.602L302.898 204.902L305.598 216.702Z" fill="#081904"/>
<path d="M303.195 203.002L322.695 211.202L330.295 188.102H309.395L303.195 203.002Z" fill="#12220E"/>
<path d="M331.698 186.2L331.598 167.3L309.098 162L308.898 186.2H331.698Z" fill="#0D1D09"/>
<path d="M308.898 159.4L313.298 154.8L309.698 150.5L308.898 159.4Z" fill="#283624"/>
<path d="M290.695 146.1L301.095 163.2L306.595 160.6L308.295 138L292.395 143.6L290.695 146.1Z" fill="#D5D3CE"/>
<path d="M281 156.803L300 163.303L288.7 146.703L281 156.803Z" fill="#F9F3F1"/>
<path d="M298.795 164.102L281.095 157.402L279.695 157.702V171.302L298.795 164.102Z" fill="#F9F3F1"/>
<path d="M285.398 189.903H304.898L305.698 187.903L299.598 165.703L279.898 172.503L285.398 189.903Z" fill="#E0DDD9"/>
<path d="M302.597 196.402L304.397 191.602H286.297L286.397 199.502L302.597 196.402Z" fill="#4A5444"/>
<path d="M294.795 198.902L277.095 201.902L275.195 205.402L294.795 210.602V198.902Z" fill="#374332"/>
<path d="M282.995 191.102L278.195 199.802L283.595 198.902L282.995 191.102Z" fill="#071803"/>
<path d="M273.894 203.802L282.094 189.102L280.194 183.502L265.494 177.102L253.094 194.402L273.894 203.802Z" fill="#465141"/>
<path d="M232.297 184.5L250.697 192.8L261.997 175.8L239.097 165L232.297 184.5Z" fill="#4A5545"/>
<path d="M227.397 183.8L228.997 184.5L236.597 163.5L220.297 162.5L227.397 183.8Z" fill="#33402F"/>
<path d="M209.195 171.2L225.495 184L219.095 162.5L209.195 171.2Z" fill="#545E4E"/>
<path d="M204.898 186.402L225.198 184.602L208.398 172.102L204.898 186.402Z" fill="#B8B9B1"/>
<path d="M205 187.402L210.1 200.402L225.1 185.602L205 187.402Z" fill="#F9F3F1"/>
<path d="M210.5 200.703L224.8 208.203L228.4 187.503L226.9 186.703L210.5 200.703Z" fill="#F9F3F1"/>
<path d="M229.898 208.102L233.098 189.002L230.998 188.102H229.598L226.398 208.102H229.898Z" fill="#F7F1EF"/>
<path d="M254.597 223.103L265.197 203.803L245.497 193.703L234.497 189.203L230.797 209.503L254.597 223.103Z" fill="#DDDAD5"/>
<path d="M255.594 223.401L260.894 224.801L274.794 208.701L265.994 205.301L255.594 223.401Z" fill="#F6F1EE"/>
<path d="M267.998 218.703L257.898 231.703L275.398 228.003L267.998 218.703Z" fill="#EBE7E4"/>
<path d="M254.695 225.302L250.695 223.102V233.102L255.495 232.102L259.995 226.802L254.695 225.302Z" fill="#F6F0EE"/>
<path d="M249.797 232.601V222.501L239.397 216.801L233.297 226.901L249.797 232.601Z" fill="#CFCEC8"/>
<path d="M217.795 206.602L214.695 217.302L224.395 222.302V210.302L217.795 206.602Z" fill="#C9C8C1"/>
<path d="M232.497 225.802L237.797 216.002L226.797 211.602V222.802L232.497 225.802Z" fill="#E1DED9"/>
<path d="M216.597 206.303L212.897 204.203L210.297 214.903L213.597 216.303L216.597 206.303Z" fill="#DFDCD7"/>
<path d="M205.895 196.502L200.395 183.002L193.395 179.902L191.695 201.002L199.195 204.402L205.895 196.502Z" fill="#F8F2F0"/>
<path d="M174.398 183.502L185.898 200.102L188.898 200.202L190.498 180.102L174.398 183.502Z" fill="#F0EBE8"/>
<path d="M163.797 193.9L184.997 200.2L172.497 184L163.797 193.9Z" fill="#D3D1CC"/>
<path d="M163.695 204.902H184.895L184.395 201.902L164.195 195.602L163.695 204.902Z" fill="#676F62"/>
<path d="M173.598 207.402H158.198L155.898 211.802L173.598 217.902V207.402Z" fill="#545D4E"/>
<path d="M162.397 188.703L154.797 210.103L155.297 210.803L162.097 196.303L162.397 188.703Z" fill="#303E2C"/>
<path d="M154.094 187.102L154.394 208.102L161.494 189.202L154.094 187.102Z" fill="#303D2B"/>
<path d="M140.298 198.703L151.798 190.303V186.503L136.898 185.203L140.298 198.703Z" fill="#192815"/>
<path d="M136.594 183.502L157.394 185.202L140.594 171.602L136.594 183.502Z" fill="#D0CEC9"/>
<path d="M158.095 183.902L153.395 166.402L141.195 171.202L158.095 183.902Z" fill="#F0EBE8"/>
<path d="M171.297 166.8L158.997 165L155.797 166.3L160.197 184.1L163.197 185L171.297 166.8Z" fill="#F9F3F1"/>
<path d="M165 186.201L183.3 175.301L173.5 165.801L165 186.201Z" fill="#F9F3F1"/>
<path d="M56.4969 121.902L62.9969 106.702L52.7969 106.102L56.4969 121.902Z" fill="#384533"/>
<path d="M76.9969 111.3L69.3969 104.5L62.8969 109.8L57.7969 122L76.9969 111.3Z" fill="#A7A9A0"/>
<path d="M58.5938 123.102L60.8938 138.002L81.2938 134.402L76.6938 112.602L58.5938 123.102Z" fill="#D0CFC9"/>
<path d="M86.3 158.401L82.1 135.801L76.2 136.901L66.5 147.601L86.3 158.401Z" fill="#B1B3AA"/>
<path d="M102.1 141.503L83.5 132.703L88.9 155.903L102.1 141.503Z" fill="#F5EFED"/>
<path d="M88 158.802L94.6 162.402L117.3 158.702L103.3 141.902L88 158.802Z" fill="#E9E5E1"/>
<path d="M96.2969 163.603L114.797 173.603L116.797 160.203L96.2969 163.603Z" fill="#757C70"/>
<path d="M93.6953 167.1L111.695 178.2L114.195 174.6L95.6953 164.5L93.6953 167.1Z" fill="#2D3A28"/>
<path d="M114.098 178.403L114.298 177.203L111.998 179.803L104.298 175.203L103.398 185.903H107.298L114.098 178.403Z" fill="#152511"/>
<path d="M122.497 169.701L117.497 168.301L116.297 176.001L122.497 169.701Z" fill="#81867B"/>
<path d="M134.697 186.103L134.197 184.203L135.797 179.303L123.297 171.703L108.797 186.803L132.597 199.303L134.697 186.103Z" fill="#505A4A"/>
<path d="M136 188.703L134 200.803L135.7 201.003L138.9 199.003L136 188.703Z" fill="#23311E"/>
<path d="M92.9984 219.5L115.398 214.4L111.898 199.5H88.8984L92.9984 219.5Z" fill="#E8E4E0"/>
<path d="M94.1953 221.202L95.0953 223.902L115.195 217.402L114.695 216.102L94.1953 221.202Z" fill="#EBE6E3"/>
<path d="M117.398 233.703L129.898 216.103L116.098 213.203L117.198 218.003L110.898 220.103V233.203L117.398 233.703Z" fill="#EFEAE7"/>
<path d="M106.797 221.903V232.803L108.997 232.903V221.203L106.797 221.903Z" fill="#AFB1A9"/>
<path d="M119 233.7L139.3 227L131.1 216.5L119 233.7Z" fill="#F7F2F0"/>
<path d="M120.094 235.102L138.694 241.602V228.602L120.094 235.102Z" fill="#CBCAC4"/>
<path d="M112.297 245.303H133.497L138.397 242.803L118.697 236.203L112.297 245.303Z" fill="#60695B"/>
<path d="M126.395 213.602L129.695 203.102L123.095 199.102H113.695L116.195 211.402L126.395 213.602Z" fill="#F3EEEB"/>
<path d="M109.297 191.102L104.797 197.002H120.797L109.297 191.102Z" fill="#D1D0CA"/>
<path d="M150.194 220.2L133.094 216.5L141.094 227L142.494 231.7L150.194 220.2Z" fill="#F9F3F1"/>
<path d="M154.694 213.402L131.994 203.402L128.594 213.902L151.094 218.802L154.694 213.402Z" fill="#DCD9D4"/>
<path d="M143.297 232.601L168.297 244.001L175.097 223.301L156.297 214.801L143.297 232.601Z" fill="#EEE9E6"/>
<path d="M164.194 256.002L167.894 245.702L152.794 238.602L143.094 247.302L164.194 256.002Z" fill="#F7F2EF"/>
<path d="M179.098 244.902L172.298 237.902L167.398 253.302L179.098 244.902Z" fill="#D0CFC9"/>
<path d="M156.498 264.303L162.798 256.903L144.398 249.203L156.498 264.303Z" fill="#F3EEEB"/>
<path d="M139.994 280.4L154.094 265.7L141.994 248.5L127.594 262.8L139.994 280.4Z" fill="#EFEAE7"/>
<path d="M110.398 287.202L129.298 298.302L138.198 281.502L124.798 263.402L110.398 287.202Z" fill="#E9E5E1"/>
<path d="M107.094 296.702L128.294 298.402L109.194 288.102L107.094 296.702Z" fill="#F7F1EF"/>
<path d="M115.797 310.802V298.602L93.7969 296.602V317.502L115.797 310.802Z" fill="#EBE7E3"/>
<path d="M107.3 290.602L93 294.302V295.102L105.9 296.002L107.3 290.602Z" fill="#F5F0ED"/>
<path d="M87.3984 296.102L91.7984 315.302V295.902L87.3984 296.102Z" fill="#F5F0ED"/>
<path d="M108.295 286.203L118.795 270.703L114.695 263.703L88.6953 288.103L93.3953 292.103L108.295 286.203Z" fill="#898E83"/>
<path d="M117.898 258.703L116.398 261.703L120.098 269.103L123.598 261.703L117.898 258.703Z" fill="#C4C4BC"/>
<path d="M118.094 257.303L125.694 261.203L135.294 253.203L118.094 257.303Z" fill="#BCBCB5"/>
<path d="M135.9 246L122.3 253L120 255.8L135.7 251.8L138.1 249.6L135.9 246Z" fill="#9FA298"/>
<path d="M26.3969 28.2L25.7969 35.4H36.5969L37.9969 26.7L30.4969 23.5L26.3969 28.2Z" fill="#979B90"/>
<path d="M35.6 38.7V36.5H25L25.2 37.8L35.6 38.7Z" fill="#ADAFA6"/>
<path d="M39.1938 59.4023L34.0938 61.0023V68.5023L39.1938 59.4023Z" fill="#DBD8D3"/>
<path d="M27.2984 63.5L26.8984 64.4L32.4984 70.4V62L27.2984 63.5Z" fill="#757C6F"/>
<path d="M104.097 59.3031L102.697 58.3031L83.7969 48.7031V50.4031L91.2969 54.4031L104.097 59.3031Z" fill="#6F7669"/>
<path d="M142.695 77V77.8L163.895 88.4V86.9L142.695 77Z" fill="#6E7568"/>
<path d="M186.598 98.5031L187.198 97.9031L167.398 88.2031V89.6031L186.598 98.5031Z" fill="#72796C"/>
<path d="M255.497 118.402L247.797 129.302L257.397 134.602V118.402H255.497Z" fill="#4A5545"/>
<path d="M269.098 118.402H259.398V128.802H268.898L269.098 118.402Z" fill="#0A1B06"/>
<path d="M268.995 133.202L269.095 130.602H259.195V135.802L266.095 136.802L268.995 133.202Z" fill="#565F50"/>
<path d="M91.3 87.7031V81.2031L81.6 77.2031L83.1 81.1031L81.5 87.7031H91.3Z" fill="#F6F0EE"/>
<path d="M80.6953 91.3008L89.2953 94.0008V88.8008H80.8953L78.7953 97.2008L75.1953 100.101L76.9953 105.701L80.6953 91.3008Z" fill="#3E4A39"/>
<path d="M70.1953 104.001L76.4953 109.601L73.6953 101.301L70.1953 104.001Z" fill="#515B4B"/>
<path d="M270 88.5008H283.7V79.5008L280.1 77.5008L273.4 76.3008L270.3 78.9008L270 88.5008Z" fill="#AFB0A8"/>
<path d="M283.1 91.9L289.1 83.5L284.2 81.5L284 89.1H271V91.9H283.1Z" fill="#D9D7D2"/>
<path d="M331.3 108.002L331.5 106.802L323.3 100.202L315 95.9023V97.5023L331.3 108.002Z" fill="#858A7F"/>
<path d="M132.2 136.903H135.1V129.103L121 122.203L132.2 136.903Z" fill="#414D3C"/>
<path d="M155.098 137.603L141.698 131.703H137.398V142.903L139.198 145.203L155.298 139.703L155.098 137.603Z" fill="#414C3C"/>
<path d="M305.3 124.402V118.502L295.1 113.602L294.5 124.402H305.3Z" fill="#F9F3F1"/>
<path d="M304.297 138.2V126H294.597L293.797 141.6L304.297 138.2Z" fill="#F2EDEA"/>
<path d="M306.9 122.703L306.8 125.903L306 126.103V137.003L309.4 136.003V123.203L306.9 122.703Z" fill="#F0ECE8"/>
<path d="M128.794 169.302V162.402L122.594 167.802L128.794 169.302Z" fill="#F5F0ED"/>
<path d="M137.398 170.9L133.498 162.5H130.398V172.6L136.398 176.6L137.398 170.9Z" fill="#F1ECE9"/>
<path d="M74.1969 137.301L60.4969 139.601L60.2969 142.901L65.1969 146.701L74.1969 137.301Z" fill="#B7B8B0"/>
<path d="M96.1 171.7L89.2 165L84 171.7H96.1Z" fill="#091A05"/>
<path d="M101.794 185.602L102.694 174.102L96.0938 172.602V185.602H101.794Z" fill="#354231"/>
<path d="M101.198 197.503V187.603L91.9984 186.703L89.3984 195.003L89.4984 197.503H101.198Z" fill="#DBD9D4"/>
<path d="M105.594 196.302L109.894 190.002L121.594 197.402V196.202L108.094 187.602H105.594V196.302Z" fill="#9FA298"/>
<path d="M146.294 208.401V196.301L138.594 205.001L146.294 208.401Z" fill="#6B7365"/>
<path d="M152.797 210.301V195.801L147.797 196.101V208.401L152.797 210.301Z" fill="#323F2D"/>
<path d="M211.095 203.501L205.295 200.301L199.895 206.301L195.695 204.501V210.101H209.495L211.095 203.501Z" fill="#E4E1DC"/>
<path d="M175.297 206.801V218.401H185.097V206.801H175.297Z" fill="#10200C"/>
<path d="M197.598 218.203L193.998 211.203L190.198 203.203L186.898 206.303V218.203H197.598Z" fill="#4E5949"/>
<path d="M173.5 232.303H186.6V228.503L176.3 223.703L173.5 232.303Z" fill="#DBD8D3"/>
<path d="M186 219.602H174.4L168 218.102L186 227.102V219.602Z" fill="#999C92"/>
<path d="M191.5 234.203H174L183.5 247.303L191.5 248.003V234.203Z" fill="#8B9084"/>
<path d="M169.594 253.303L175.894 255.703L174.994 250.203L181.494 248.303L179.994 246.203L169.594 253.303Z" fill="#697163"/>
<path d="M175.294 257.801H164.494L160.594 262.901V264.901L163.894 263.001L165.594 257.901L176.194 263.001L175.294 257.801Z" fill="#4F5A4A"/>
<path d="M149.894 273.101L149.094 276.501L161.194 278.401L155.994 268.301L149.894 273.101Z" fill="#6B7365"/>
<path d="M144.394 278.402L139.994 282.302L134.594 291.602L144.394 293.502V278.402Z" fill="#9FA298"/>
<path d="M199.094 211.602V229.002L206.794 229.602V217.102L209.694 211.602H199.094Z" fill="#283624"/>
<path d="M195 219.703L195.8 228.703L197.5 228.803V219.703H195Z" fill="#0E1F0A"/>
<path d="M188.094 231.902H193.494V224.102H188.094V231.902Z" fill="#737A6D"/>
<path d="M122.898 299.102V303.402H128.798V299.602L122.898 299.102Z" fill="#93978C"/>
<path d="M120.297 309.601H128.297V304.801H120.297V309.601Z" fill="#4D5848"/>
<path d="M215.898 141.301L210.398 151.801L211.198 153.301H228.798V147.401L215.898 141.301Z" fill="#EDE9E6"/>
<path d="M252.1 158.602L243.6 155.102L230.5 148.402V161.202L252.1 162.602V158.602Z" fill="#F3EEEB"/>
<path d="M258.7 171.002H276.1V158.902L254.5 163.002V169.202L258.7 171.002Z" fill="#F7F1EF"/>
<path d="M279.598 181.503L276.498 172.703H266.898V175.203L279.598 181.503Z" fill="#D7D5CF"/>
<path d="M226.794 154.902H211.594L215.994 162.602L226.794 157.102V154.902Z" fill="#5E6759"/>
<path d="M307.397 186.902L307.797 168.102H302.297L307.397 186.902Z" fill="#909489"/>
<path d="M184.797 172.402V177.302H193.197L184.797 172.402Z" fill="#F8F3F0"/>
<path d="M205.098 176.803L206.098 173.203L202.998 173.103L202.798 171.203L196.198 166.203L195.398 176.803H205.098Z" fill="#B6B6AF"/>
<path d="M268.898 217.001L270.498 218.801H274.698V209.801L268.898 217.001Z" fill="#F8F2F0"/>
<path d="M287.3 219.7V209.6L277 206.5V219.7H287.3Z" fill="#D0CFC9"/>
<path d="M287.694 228.101V220.801H277.594V230.301L287.694 228.101Z" fill="#B6B7AF"/>
<path d="M295.695 198.6V208.7H301.795L299.495 198L295.695 198.6Z" fill="#0D1D08"/>
<path d="M288.797 227.503L303.897 217.903L302.097 210.203L288.797 213.803V227.503Z" fill="#777E71"/>
<path d="M105.5 233.5V222L96.5 225L97.9 225.3V236L105.5 233.5Z" fill="#555F50"/>
<path d="M116.697 235.302L111.697 234.902L112.897 235.902L109.797 245.502H110.597L116.697 235.302Z" fill="#142410"/>
<path d="M90.1953 249.302L83.1953 246.102V257.402L90.1953 249.302Z" fill="#071803"/>
<path d="M77.1953 243.603L74.6953 241.203L81.3953 253.603V245.403L77.1953 243.603Z" fill="#071803"/>
<path d="M142.094 233.801V243.801H144.894L151.194 238.101L142.094 233.801Z" fill="#F9F3F1"/>
<path d="M125.798 246.602H119.398V250.202L120.698 250.802L119.398 254.602L125.798 246.602Z" fill="#303D2B"/>
<path d="M68.1953 310.702H87.7953L85.8953 289.902L74.0953 301.802L68.1953 310.702Z" fill="#6F7669"/>
<path d="M71.3 318.4L82.4 319.4L85.5 318.8V312H68.9L68 313.4L68.5 316.1L71.3 318.4Z" fill="#C3C3BC"/>
<path d="M91.1 317.5L88.9 305.5L88 318.5L91.1 317.5Z" fill="#E8E4E0"/>
<path d="M128.497 310.802V309.802L119.297 309.602L119.197 299.502L118.297 299.402V310.802H128.497Z" fill="#81877C"/>
</svg>
