<svg width="70" height="70" viewBox="0 0 70 70" fill="none" xmlns="http://www.w3.org/2000/svg">
<path fill-rule="evenodd" clip-rule="evenodd" d="M56.2834 19.3717L56.9888 14.623H22.0059L21.4783 18.1031C20.9068 21.7227 20.0696 24.9781 18.9266 27.8269C17.5618 31.1734 15.8453 33.6155 14.1309 34.7465C15.8453 35.8775 17.5178 38.273 18.9266 41.6661C20.0696 44.4683 20.9508 47.7237 21.4783 51.3879L22.0059 54.8679H56.9888L56.2854 50.1213C55.4062 44.2417 53.7316 38.9529 51.4437 34.9266L51.3558 34.791L51.4437 34.6554C53.6877 30.5401 55.4042 25.2493 56.2854 19.3717H56.2834ZM47.1315 46.3216C46.6919 44.6039 46.1644 43.0662 45.5929 41.7086C44.0962 37.9999 42.2479 35.6064 40.4874 34.7C42.2039 33.7956 44.0503 31.3535 45.5489 27.6913C46.1204 26.3358 46.6479 24.7981 47.0876 23.0783H28.9157C27.9026 27.6003 26.4939 31.5356 24.6915 34.7C26.4939 37.8664 27.9466 41.8016 28.9157 46.3216H47.1315Z" fill="#F9F4F1"/>
</svg>
