<svg width="70" height="70" viewBox="0 0 70 70" fill="none" xmlns="http://www.w3.org/2000/svg">
<g clip-path="url(#clip0_61_100780)">
<path d="M30.5282 19.4612C32.3394 17.5294 34.9 16.3536 37.7104 16.3536C41.4577 16.3536 44.7053 18.4533 46.454 21.5819C47.9737 20.91 49.6392 20.5321 51.3879 20.5321C58.1329 20.5321 63.6081 26.0964 63.6081 32.9625C63.6081 39.8287 58.1329 45.393 51.3879 45.393C50.5552 45.393 49.7641 45.309 48.973 45.141C47.4533 47.8917 44.5179 49.7604 41.1871 49.7604C39.7922 49.7604 38.4599 49.4245 37.2733 48.8575C35.7119 52.5321 32.1104 55.1147 27.9052 55.1147C23.5126 55.1147 19.7861 52.3221 18.3497 48.3956C17.7251 48.5216 17.0798 48.6056 16.4136 48.6056C11.1675 48.5636 6.94141 44.2591 6.94141 38.9258C6.94141 35.3562 8.83585 32.2486 11.6671 30.5688C11.0842 29.225 10.7719 27.7342 10.7719 26.1594C10.7719 20.0491 15.685 15.0938 21.7638 15.0938C25.3445 15.0938 28.5089 16.7945 30.5282 19.4612V19.4612Z" fill="#F9F4F1"/>
<path d="M39.9372 29.0371C40.1038 29.0371 40.2498 29.0581 40.3747 29.0791C40.4996 29.1001 40.6037 29.1211 40.7077 29.1631C40.7285 29.1841 40.7907 29.2051 40.7282 29.2891L40.4782 29.9824C40.4575 30.0243 40.4364 30.0663 40.3327 30.0244C40.3118 30.0242 40.2701 30.0033 40.1667 29.9824C40.0835 29.9824 40.0001 29.961 39.8962 29.9609C39.7713 29.9609 39.6458 29.9609 39.5417 30.0029C39.4377 30.024 39.3544 30.087 39.2712 30.1709C39.1879 30.2549 39.0843 30.3813 39.0427 30.5283C38.9386 30.8852 38.8757 31.2632 38.8757 31.2842H39.9167C39.9998 31.2842 40.0202 31.3258 40.0202 31.3887L39.8962 32.082C39.8753 32.1869 39.7917 32.1865 39.7917 32.1865H38.7087L37.9597 36.4072C37.8764 36.8482 37.7727 37.2265 37.6687 37.5205C37.5646 37.8144 37.439 38.045 37.2517 38.2549C37.0851 38.4438 36.8771 38.5908 36.6481 38.6748C36.4192 38.7588 36.1488 38.8008 35.8366 38.8008C35.6909 38.8008 35.5445 38.8008 35.3571 38.7588C35.2325 38.7378 35.1701 38.7168 35.0661 38.6748C35.0245 38.6748 35.0033 38.6118 35.0241 38.5488C35.0451 38.4854 35.2533 37.9399 35.2741 37.877C35.3158 37.7721 35.3991 37.8145 35.3991 37.8145C35.4615 37.8354 35.5034 37.856 35.5866 37.877C35.6699 37.877 35.7739 37.8984 35.8571 37.8984C36.0028 37.8984 36.1486 37.877 36.2526 37.835C36.3774 37.793 36.4605 37.7093 36.5437 37.6045C36.6269 37.4996 36.7107 37.3524 36.7731 37.1426C36.8356 36.9326 36.8982 36.6592 36.9606 36.3232L37.6892 32.1865H36.9606C36.8775 32.1865 36.8562 32.1449 36.8562 32.082L36.9812 31.3887C37.002 31.2839 37.0856 31.2842 37.0856 31.2842H37.8347L37.8767 31.0527C38.0016 30.3809 38.2096 29.8769 38.5427 29.541C38.8757 29.2052 39.3337 29.0372 39.9372 29.0371ZM51.4499 31.2002C51.7205 31.2002 51.9703 31.2002 52.1784 31.2422C52.4074 31.2842 52.699 31.3682 52.8239 31.4102C52.8449 31.4102 52.9071 31.431 52.8864 31.5146C52.8032 31.7876 52.7402 31.9556 52.6569 32.1865C52.6369 32.2877 52.559 32.2527 52.5534 32.25C52.2412 32.145 51.9285 32.1025 51.5329 32.1025C51.0542 32.1026 50.6799 32.271 50.4509 32.5859C50.2011 32.9008 50.0759 33.3204 50.0759 33.8662C50.0759 34.4749 50.2215 34.937 50.4919 35.21C50.7625 35.4829 51.1167 35.6299 51.5954 35.6299C51.8035 35.6299 51.97 35.6089 52.1364 35.5879C52.3029 35.5669 52.4488 35.5249 52.5944 35.4619C52.5944 35.4619 52.6778 35.4204 52.7194 35.5254L52.9069 36.1758C52.9266 36.2552 52.872 36.2974 52.8659 36.3018C52.4913 36.4487 51.9914 36.5536 51.4919 36.5537C50.6592 36.5537 50.0131 36.3023 49.5759 35.8193C49.1388 35.3364 48.9304 34.685 48.9304 33.8662C48.9304 33.4884 48.9933 33.1313 49.0974 32.8164C49.2015 32.5015 49.3678 32.2075 49.5759 31.9766C49.784 31.7457 50.0548 31.5571 50.3669 31.4102C50.6792 31.2632 51.0335 31.2002 51.4499 31.2002ZM17.1833 31.1572C17.8078 31.1572 18.4121 31.3247 18.8493 31.5977C18.8909 31.6187 18.9325 31.6608 18.9118 31.7236C18.891 31.7866 18.7031 32.312 18.6823 32.375C18.6416 32.4769 18.5418 32.4199 18.5368 32.417C18.1621 32.207 17.5579 32.0391 17.0583 32.0391C16.6006 32.0392 16.3094 32.2697 16.3093 32.6055V32.627C16.3096 33.0046 16.8088 33.1725 17.3913 33.3613L17.4958 33.4033C18.266 33.6553 19.0777 33.9914 19.0778 34.915V34.9365C19.0777 35.9233 18.349 36.5527 17.1833 36.5527C16.6214 36.5527 16.0804 36.469 15.4978 36.1543C15.3729 36.0913 15.2679 36.0488 15.1638 35.9648C15.1631 35.944 15.1019 35.9224 15.1433 35.8389L15.3513 35.167C15.3722 35.0413 15.4561 35.0835 15.4978 35.1045C15.5599 35.1464 15.6014 35.1886 15.6843 35.2305C16.3709 35.6712 16.9956 35.6709 17.1833 35.6709C17.6829 35.6709 17.9958 35.398 17.9958 35.041V35.0205C17.9958 34.6216 17.5168 34.4746 16.9548 34.3066L16.8298 34.2646C16.0596 34.0547 15.2479 33.7395 15.2478 32.7529V32.7314C15.2478 31.8078 15.9968 31.1574 17.0583 31.1572H17.1833ZM34.2126 31.1572C34.8371 31.1572 35.4414 31.3247 35.8786 31.5977C35.9201 31.6187 35.9617 31.6609 35.9411 31.7236C35.9203 31.7866 35.7324 32.312 35.7116 32.375C35.6712 32.4763 35.5722 32.4206 35.5661 32.417C35.1914 32.207 34.5872 32.0391 34.0876 32.0391C33.6298 32.0391 33.3387 32.2696 33.3386 32.6055V32.627C33.3389 33.0046 33.838 33.1725 34.4206 33.3613L34.5251 33.4033C35.2953 33.6553 36.107 33.9914 36.1071 34.915V34.9365C36.107 35.9233 35.3783 36.5527 34.2126 36.5527C33.6506 36.5527 33.1089 36.4692 32.5261 36.1543C32.4013 36.0914 32.2971 36.0488 32.1931 35.9648C32.1924 35.944 32.1312 35.9224 32.1726 35.8389L32.3806 35.167C32.4015 35.0625 32.505 35.0835 32.5261 35.1045C32.5885 35.1465 32.6304 35.1885 32.7136 35.2305C33.4004 35.6713 34.0251 35.6709 34.2126 35.6709C34.7122 35.6709 35.0251 35.398 35.0251 35.041V35.0205C35.0251 34.6216 34.546 34.4746 33.9841 34.3066L33.8591 34.2646C33.0889 34.0547 32.2772 33.7395 32.2771 32.7529V32.7314C32.2771 31.8077 33.0261 31.1573 34.0876 31.1572H34.2126ZM21.9099 31.1572C22.5552 31.1572 23.055 31.3252 23.4089 31.6191C23.7627 31.9341 23.9294 32.4171 23.9294 33.0889V36.1123C23.9294 36.1158 23.9274 36.1961 23.8464 36.2168C23.8464 36.2168 23.721 36.2593 23.6169 36.2803C23.4918 36.3223 23.096 36.3853 22.7839 36.4482C22.451 36.5112 22.1178 36.5322 21.7849 36.5322C21.4519 36.5322 21.1606 36.5112 20.9108 36.4482C20.6611 36.3853 20.4321 36.2802 20.2448 36.1543C20.0575 36.0073 19.9114 35.8389 19.8073 35.6289C19.7033 35.419 19.6618 35.1669 19.6618 34.873C19.6619 34.6002 19.703 34.3271 19.8278 34.1172C19.9527 33.9072 20.0992 33.7183 20.3073 33.5713C20.5154 33.4245 20.7442 33.3198 20.9939 33.2568C21.2437 33.1938 21.5149 33.1514 21.8064 33.1514C22.0141 33.1514 22.2011 33.1728 22.3259 33.1729C22.3259 33.1729 22.576 33.1934 22.9089 33.2354V33.0889C22.9089 32.648 22.8257 32.438 22.6384 32.291C22.4511 32.1441 22.1807 32.0811 21.8269 32.0811C21.8269 32.0811 21.0149 32.081 20.3903 32.417C20.3497 32.4375 20.3288 32.4375 20.3278 32.4375C20.3278 32.4375 20.2443 32.4587 20.2233 32.375L19.9948 31.7451C19.955 31.6647 20.0106 31.6225 20.0153 31.6191C20.3276 31.3882 21.0358 31.2412 21.0358 31.2412C21.2648 31.1992 21.6601 31.1572 21.9099 31.1572ZM42.5192 31.1992C42.9147 31.1992 43.2688 31.2622 43.5603 31.4092C43.8515 31.5351 44.1012 31.7448 44.3093 31.9756C44.4966 32.2065 44.6427 32.5005 44.7468 32.8154C44.8509 33.1513 44.8923 33.4874 44.8923 33.8652C44.8923 34.2431 44.8508 34.6001 44.7468 34.915C44.6635 35.23 44.4966 35.5239 44.3093 35.7549C44.1011 35.9858 43.8517 36.1963 43.5603 36.3223C43.2688 36.4692 42.9147 36.5322 42.5192 36.5322C42.1237 36.5322 41.7697 36.4482 41.4782 36.3223C41.1868 36.1963 40.9374 35.9858 40.7292 35.7549C40.5418 35.5239 40.3958 35.23 40.2917 34.915C40.1877 34.6001 40.1462 34.2431 40.1462 33.8652C40.1462 33.4874 40.1876 33.1303 40.2917 32.8154C40.375 32.5005 40.5419 32.2065 40.7292 31.9756C40.9373 31.7448 41.187 31.5561 41.4782 31.4092C41.7697 31.2622 42.1237 31.1992 42.5192 31.1992ZM29.404 31.1787C29.7577 31.1788 30.07 31.2422 30.3405 31.3682C30.5485 31.4522 30.7565 31.6199 30.9646 31.8506C31.0895 31.9976 31.2983 32.313 31.3815 32.6279C31.5896 33.3837 31.4857 34.0347 31.5065 34.0137C31.4857 34.0976 31.4021 34.0977 31.4021 34.0977H28.113C28.1338 34.5805 28.2382 34.9375 28.488 35.1895C28.717 35.4412 29.1126 35.5879 29.612 35.5879C30.4027 35.5878 30.7356 35.4199 30.9646 35.3359C30.9646 35.3359 31.0479 35.3154 31.0896 35.3994L31.2976 36.0078C31.3392 36.1127 31.3186 36.1548 31.2771 36.1758C31.0897 36.3018 30.5902 36.5117 29.6325 36.5117C29.1746 36.5117 28.7791 36.4492 28.446 36.3232C28.1129 36.1973 27.8212 36.0083 27.613 35.7773C27.3841 35.5464 27.2386 35.2524 27.1345 34.9375C27.0304 34.6226 26.989 34.2656 26.989 33.8877C26.989 33.5098 27.0304 33.1738 27.1345 32.8379C27.2177 32.5019 27.3638 32.2285 27.572 31.9766C27.7593 31.7248 28.0089 31.5356 28.321 31.3887C28.6124 31.2417 28.9877 31.1787 29.404 31.1787ZM55.697 31.1787C56.0508 31.1787 56.3629 31.2422 56.6335 31.3682C56.8416 31.4522 57.0504 31.6197 57.2585 31.8506C57.3834 31.9976 57.5913 32.3131 57.6745 32.6279C57.8826 33.3837 57.7787 34.0347 57.7995 34.0137C57.7787 34.0975 57.695 34.0977 57.695 34.0977H54.406C54.4268 34.5805 54.5312 34.9375 54.781 35.1895C55.01 35.4413 55.4055 35.5879 55.905 35.5879C56.696 35.5879 57.0295 35.4199 57.2585 35.3359C57.2656 35.3343 57.3428 35.3194 57.3825 35.3994L57.5915 36.0078C57.6331 36.1128 57.6117 36.1548 57.57 36.1758C57.3827 36.3018 56.8831 36.5117 55.9255 36.5117C55.4676 36.5117 55.072 36.4492 54.739 36.3232C54.4059 36.1973 54.1141 36.0083 53.906 35.7773C53.6771 35.5464 53.5315 35.2524 53.4274 34.9375C53.3234 34.6226 53.282 34.2656 53.2819 33.8877C53.2819 33.5098 53.3234 33.1738 53.4274 32.8379C53.5107 32.5019 53.6568 32.2285 53.8649 31.9766C54.0523 31.7247 54.3018 31.5356 54.614 31.3887C54.9054 31.2417 55.2806 31.1787 55.697 31.1787ZM48.2233 31.2627C48.4315 31.2628 48.7019 31.3257 48.7644 31.3467C48.7852 31.3676 48.827 31.389 48.8064 31.4727C48.7855 31.5566 48.6181 31.998 48.5349 32.166C48.5141 32.2078 48.4729 32.2498 48.4108 32.25C48.4108 32.25 48.2229 32.208 48.0564 32.208C47.9315 32.208 47.7645 32.2285 47.6189 32.2705C47.4733 32.3125 47.3482 32.3966 47.2233 32.5225C47.0985 32.6275 46.9948 32.7959 46.9323 33.0059C46.8699 33.1948 46.8279 33.5305 46.8278 33.8662V36.3652C46.8278 36.4282 46.7867 36.4706 46.7243 36.4707H45.8708C45.8084 36.4707 45.7663 36.4282 45.7663 36.3652V31.4307C45.7664 31.3678 45.8084 31.3262 45.8708 31.3262H46.7028C46.7652 31.3262 46.8072 31.3678 46.8073 31.4307V31.8301C46.9322 31.6621 47.1616 31.4941 47.3698 31.4102C47.578 31.3052 47.8071 31.2417 48.2233 31.2627ZM25.9265 29.1631C25.9889 29.1631 26.031 29.2056 26.031 29.2686V36.3447C26.0308 36.4075 25.9888 36.4492 25.9265 36.4492H25.0524C24.9902 36.4492 24.9491 36.4074 24.9489 36.3447V29.2686C24.9489 29.2056 24.99 29.1631 25.0524 29.1631H25.9265ZM21.9724 33.9912C21.3062 33.9702 21.0144 34.2227 21.0144 34.2227C20.8273 34.3696 20.7234 34.5794 20.7233 34.873C20.7233 35.062 20.7654 35.2095 20.8278 35.3145C20.8693 35.3771 20.89 35.3984 21.0144 35.5029C21.0144 35.5029 21.3062 35.7339 21.9724 35.7129C22.4512 35.6709 22.8679 35.5869 22.8679 35.5869V34.0752C22.8679 34.0752 22.4512 33.9912 21.9724 33.9912ZM42.5192 32.0811C42.0821 32.0811 41.7909 32.228 41.5827 32.543C41.3746 32.8579 41.2702 33.2985 41.2702 33.8652C41.2702 34.4322 41.3745 34.8735 41.5827 35.1885C41.7909 35.5032 42.0822 35.6504 42.5192 35.6504C42.9355 35.6504 43.2476 35.5033 43.4558 35.1885C43.6639 34.8735 43.7683 34.4322 43.7683 33.8652C43.7682 33.2985 43.6639 32.8579 43.4558 32.543C43.2684 32.228 42.9564 32.0811 42.5192 32.0811ZM29.32 32.0605C28.883 32.0606 28.5916 32.229 28.3835 32.5439C28.2379 32.7538 28.1546 33.0056 28.113 33.3203H30.444C30.4232 33.0265 30.3609 32.7538 30.236 32.5439C30.0279 32.229 29.7572 32.0605 29.32 32.0605ZM55.613 32.0605C55.176 32.0607 54.8846 32.2291 54.6765 32.5439C54.5309 32.7538 54.4476 33.0056 54.406 33.3203H56.738C56.7172 33.0264 56.6747 32.7539 56.529 32.5439C56.3208 32.229 56.0502 32.0605 55.613 32.0605Z" fill="#071803"/>
</g>
<defs>
<clipPath id="clip0_61_100780">
<rect width="56.6667" height="40" fill="white" transform="translate(6.94141 15.0938)"/>
</clipPath>
</defs>
</svg>
