<svg width="70" height="70" viewBox="0 0 70 70" fill="none" xmlns="http://www.w3.org/2000/svg">
<g clip-path="url(#clip0_61_100807)">
<path fill-rule="evenodd" clip-rule="evenodd" d="M51.0567 32.5861C50.1007 31.2867 48.7369 30.3403 47.1731 29.91C45.3188 29.3999 43.3352 29.6571 41.6584 30.6252C39.9817 31.5933 38.7492 33.1928 38.2322 35.0721C37.7961 36.657 37.8991 38.3313 38.5093 39.8304L51.0567 32.5861ZM51.8435 32.1318C50.7665 30.6251 49.2074 29.5276 47.414 29.0343C45.3306 28.4611 43.1017 28.7501 41.2177 29.8378C39.3337 30.9255 37.949 32.7229 37.368 34.8343C36.868 36.6518 36.9988 38.5739 37.7225 40.2846C37.8393 40.5608 37.9716 40.8314 38.1192 41.0953L38.1201 41.0968L52.3273 32.8943C52.1793 32.63 52.0177 32.3756 51.8435 32.1318Z" fill="#F9F4F1"/>
<path fill-rule="evenodd" clip-rule="evenodd" d="M37.835 43.7979C38.791 45.0973 40.1548 46.0437 41.7186 46.4739C43.5729 46.9841 45.5566 46.7268 47.2333 45.7588C48.9101 44.7907 50.1425 43.1911 50.6596 41.3119C51.0956 39.727 50.9926 38.0527 50.3824 36.5536L37.835 43.7979ZM37.0482 44.2521C38.1252 45.7588 39.6843 46.8563 41.4777 47.3497C43.5612 47.9229 45.79 47.6339 47.674 46.5461C49.558 45.4584 50.9428 43.6611 51.5237 41.5497C52.0237 39.7322 51.8929 37.81 51.1693 36.0993C51.0522 35.8226 50.9196 35.5514 50.7717 35.2871L36.5645 43.4896C36.7124 43.7539 36.874 44.0084 37.0482 44.2521Z" fill="#F9F4F1"/>
<mask id="mask0_61_100807" style="mask-type:luminance" maskUnits="userSpaceOnUse" x="53" y="41" width="7" height="7">
<path d="M59.6384 41.8379H53.5625V47.9138H59.6384V41.8379Z" fill="white"/>
</mask>
<g mask="url(#mask0_61_100807)">
<path d="M59.6384 44.8759C59.6384 46.5537 58.2783 47.9138 56.6005 47.9138C54.9227 47.9138 53.5625 46.5537 53.5625 44.8759C53.5625 43.1981 54.9227 41.8379 56.6005 41.8379C58.2783 41.8379 59.6384 43.1981 59.6384 44.8759Z" fill="#F9F4F1"/>
</g>
<mask id="mask1_61_100807" style="mask-type:luminance" maskUnits="userSpaceOnUse" x="11" y="19" width="7" height="29">
<path d="M17.7146 19.9648H11.6387V47.9142H17.7146V19.9648Z" fill="white"/>
</mask>
<g mask="url(#mask1_61_100807)">
<path d="M14.6766 26.0408C16.3545 26.0408 17.7146 24.6806 17.7146 23.0028C17.7146 21.325 16.3545 19.9648 14.6766 19.9648C12.9988 19.9648 11.6387 21.325 11.6387 23.0028C11.6387 24.6806 12.9988 26.0408 14.6766 26.0408Z" fill="#F9F4F1"/>
<path fill-rule="evenodd" clip-rule="evenodd" d="M16.7132 31.2502H12.6401V46.9521H16.7132V31.2502ZM11.6387 30.291V47.9113H17.7146V30.291H11.6387Z" fill="#F9F4F1"/>
</g>
<mask id="mask2_61_100807" style="mask-type:luminance" maskUnits="userSpaceOnUse" x="18" y="19" width="18" height="29">
<path d="M35.9406 19.9648H18.3203V47.9142H35.9406V19.9648Z" fill="white"/>
</mask>
<g mask="url(#mask2_61_100807)">
<path fill-rule="evenodd" clip-rule="evenodd" d="M27.1304 46.951C31.4658 46.951 34.9803 43.4365 34.9803 39.1011C34.9803 34.7658 31.4658 31.2513 27.1304 31.2513C22.7951 31.2513 19.2806 34.7658 19.2806 39.1011C19.2806 43.4365 22.7951 46.951 27.1304 46.951ZM27.1304 47.9113C31.9961 47.9113 35.9406 43.9668 35.9406 39.1011C35.9406 34.2355 31.9961 30.291 27.1304 30.291C22.2648 30.291 18.3203 34.2355 18.3203 39.1011C18.3203 43.9668 22.2648 47.9113 27.1304 47.9113Z" fill="#F9F4F1"/>
<path fill-rule="evenodd" clip-rule="evenodd" d="M34.9482 21.0113H30.8504V46.8677H34.9482V21.0113ZM29.8613 19.9648V47.9142H35.9373V19.9648H29.8613Z" fill="#F9F4F1"/>
</g>
</g>
<defs>
<clipPath id="clip0_61_100807">
<rect width="48" height="30.9873" fill="white" transform="translate(11.6387 19.9648)"/>
</clipPath>
</defs>
</svg>
