<svg width="32" height="32" viewBox="0 0 32 32" fill="none" xmlns="http://www.w3.org/2000/svg">
<g clip-path="url(#clip0_40000240_44280)">
<path d="M32.0031 27.4297H28.9531V28.9497H32.0031V27.4297Z" fill="#F9F4F1"/>
<path d="M28.9528 25.8984H24.3828V27.4284H28.9528V25.8984Z" fill="#F9F4F1"/>
<path d="M24.38 28.9492V30.4792H18.29V28.9492H13.72V30.4792H7.62V28.9492H3.05V30.4792H0V31.9992H32V30.4792H28.95V28.9492H24.38Z" fill="#F9F4F1"/>
<path d="M24.3791 27.4297H18.2891V28.9497H24.3791V27.4297Z" fill="#F9F4F1"/>
<path d="M22.8591 0H18.2891V1.52H22.8591V0Z" fill="#F9F4F1"/>
<path d="M18.2878 1.51953H16.7578V4.56953H18.2878V1.51953Z" fill="#F9F4F1"/>
<path d="M18.2888 25.8984H13.7188V27.4284H18.2888V25.8984Z" fill="#F9F4F1"/>
<path d="M13.7172 27.4297H7.61719V28.9497H13.7172V27.4297Z" fill="#F9F4F1"/>
<path d="M7.61687 0H3.04688V1.52H7.61687V0Z" fill="#F9F4F1"/>
<path d="M7.61687 25.8984H3.04688V27.4284H7.61687V25.8984Z" fill="#F9F4F1"/>
<path d="M30.48 22.8595H28.95V21.3295H24.38V1.51953H22.86V9.13953H9.14V1.51953H7.62V21.3295H3.05V22.8595H1.53V24.3795H0V25.8995H3.05V24.3795H7.62V25.8995H13.72V24.3795H18.29V25.8995H24.38V24.3795H28.95V25.8995H32V24.3795H30.48V22.8595ZM22.86 24.3795H19.81V22.8595H18.29V21.3295H13.72V22.8595H12.19V24.3795H9.14V18.2795H22.86V24.3795ZM22.86 16.7595H9.14V10.6695H22.86V16.7595Z" fill="#F9F4F1"/>
<path d="M3.05 27.4297H0V28.9497H3.05V27.4297Z" fill="#F9F4F1"/>
<path d="M3.05125 1.51953H1.53125V4.56953H3.05125V1.51953Z" fill="#F9F4F1"/>
</g>
<defs>
<clipPath id="clip0_40000240_44280">
<rect width="32" height="32" fill="white"/>
</clipPath>
</defs>
</svg>
