<svg width="32" height="32" viewBox="0 0 32 32" fill="none" xmlns="http://www.w3.org/2000/svg">
<g clip-path="url(#clip0_40000240_44323)">
<path d="M32.0022 9.14844H15.2422V10.6684H32.0022V9.14844Z" fill="#F9F4F1"/>
<path d="M31.9987 27.4297H13.7188V28.9597H31.9987V27.4297Z" fill="#F9F4F1"/>
<path d="M32.0034 22.8594H16.7734V24.3794H32.0034V22.8594Z" fill="#F9F4F1"/>
<path d="M31.9991 18.2891H18.2891V19.8091H31.9991V18.2891Z" fill="#F9F4F1"/>
<path d="M32.0034 13.7188H16.7734V15.2387H32.0034V13.7188Z" fill="#F9F4F1"/>
<path d="M16.7722 16.7617H15.2422V21.3417H16.7722V16.7617Z" fill="#F9F4F1"/>
<path d="M16.7722 1.53125H15.2422V6.10125H16.7722V1.53125Z" fill="#F9F4F1"/>
<path d="M15.2387 21.3398H13.7188V22.8598H15.2387V21.3398Z" fill="#F9F4F1"/>
<path d="M15.2387 15.2383H13.7188V16.7583H15.2387V15.2383Z" fill="#F9F4F1"/>
<path d="M15.2387 6.10156H13.7188V7.62156H15.2387V6.10156Z" fill="#F9F4F1"/>
<path d="M15.2375 0H12.1875V1.53H15.2375V0Z" fill="#F9F4F1"/>
<path d="M13.7216 22.8612H12.1916V15.2413H13.7216V13.7213H12.1916V9.15125H13.7216V7.62125H12.1916V1.53125H10.6716V9.15125H9.15156V10.6713H10.6716V13.7213H9.15156V15.2413H10.6716V18.2913H9.15156V19.8112H10.6716V22.8612H7.62156V24.3812H10.6716V25.9112H7.62156V27.4312H6.10156V30.4812H7.62156V32.0012H10.6716V30.4812H12.1916V24.3812H13.7216V22.8612Z" fill="#F9F4F1"/>
<path d="M9.14719 15.2383H7.61719V18.2883H9.14719V15.2383Z" fill="#F9F4F1"/>
<path d="M9.14719 10.6719H7.61719V12.1919H9.14719V10.6719Z" fill="#F9F4F1"/>
<path d="M7.62156 21.3398H6.10156V22.8598H7.62156V21.3398Z" fill="#F9F4F1"/>
<path d="M7.62156 12.1914H6.10156V13.7214H7.62156V12.1914Z" fill="#F9F4F1"/>
<path d="M6.09812 13.7188H4.57812V21.3387H6.09812V13.7188Z" fill="#F9F4F1"/>
<path d="M4.58 27.4297H0V28.9597H4.58V27.4297Z" fill="#F9F4F1"/>
<path d="M4.58 22.8594H0V24.3794H4.58V22.8594Z" fill="#F9F4F1"/>
<path d="M3.05 18.2891H0V19.8091H3.05V18.2891Z" fill="#F9F4F1"/>
<path d="M3.05 13.7188H0V15.2387H3.05V13.7188Z" fill="#F9F4F1"/>
<path d="M6.1 9.14844H0V10.6684H6.1V9.14844Z" fill="#F9F4F1"/>
</g>
<defs>
<clipPath id="clip0_40000240_44323">
<rect width="32" height="32" fill="white"/>
</clipPath>
</defs>
</svg>
