<svg width="32" height="32" viewBox="0 0 32 32" fill="none" xmlns="http://www.w3.org/2000/svg">
<path d="M27.4334 9.90328V8.38328H25.9034V9.90328H24.3834V11.4333H28.9534V14.4733H24.3834V16.0033H19.8134V17.5233H15.2434V19.0533H10.6734V20.5733H6.09344V22.0933H3.05344V19.0533H6.09344V17.5233H3.05344V16.0033H1.52344V31.2433H6.09344V29.7133H3.05344V26.6733H6.09344V25.1433H10.6734V23.6233H15.2434V22.0933H19.8134V20.5733H24.3834V19.0533H28.9534V20.5733H27.4334V22.0933H30.4834V6.86328H28.9534V9.90328H27.4334Z" fill="#F9F4F1"/>
<path d="M28.9563 5.33203H25.9062V6.86203H28.9563V5.33203Z" fill="#F9F4F1"/>
<path d="M27.4328 22.0898H24.3828V23.6198H27.4328V22.0898Z" fill="#F9F4F1"/>
<path d="M25.9072 6.86328H22.8672V8.38328H25.9072V6.86328Z" fill="#F9F4F1"/>
<path d="M25.9072 3.8125H22.8672V5.3325H25.9072V3.8125Z" fill="#F9F4F1"/>
<path d="M24.3825 23.6211H19.8125V25.1411H24.3825V23.6211Z" fill="#F9F4F1"/>
<path d="M24.3825 11.4336H19.8125V12.9536H24.3825V11.4336Z" fill="#F9F4F1"/>
<path d="M22.8625 5.33203H19.8125V6.86203H22.8625V5.33203Z" fill="#F9F4F1"/>
<path d="M22.8625 2.28125H19.8125V3.81125H22.8625V2.28125Z" fill="#F9F4F1"/>
<path d="M19.8156 3.8125H16.7656V5.3325H19.8156V3.8125Z" fill="#F9F4F1"/>
<path d="M19.8156 0.761719H16.7656V2.28172H19.8156V0.761719Z" fill="#F9F4F1"/>
<path d="M19.8122 25.1406H15.2422V26.6706H19.8122V25.1406Z" fill="#F9F4F1"/>
<path d="M19.8122 12.9531H15.2422V14.4731H19.8122V12.9531Z" fill="#F9F4F1"/>
<path d="M16.7622 2.28125H15.2422V3.81125H16.7622V2.28125Z" fill="#F9F4F1"/>
<path d="M15.2419 26.6719H10.6719V28.1919H15.2419V26.6719Z" fill="#F9F4F1"/>
<path d="M15.2419 14.4727H10.6719V16.0027H15.2419V14.4727Z" fill="#F9F4F1"/>
<path d="M10.6706 3.81125V5.33125H9.14062V9.90125H10.6706V11.4313H15.2406V9.90125H16.7606V5.33125H15.2406V3.81125H13.7106V2.28125H12.1906V3.81125H10.6706ZM13.7106 5.33125V6.86125H15.2406V8.38125H13.7106V6.86125H12.1906V5.33125H13.7106Z" fill="#F9F4F1"/>
<path d="M12.1906 0.761719H9.14062V2.28172H12.1906V0.761719Z" fill="#F9F4F1"/>
<path d="M10.6737 28.1914H6.09375V29.7114H10.6737V28.1914Z" fill="#F9F4F1"/>
<path d="M10.6737 16H6.09375V17.52H10.6737V16Z" fill="#F9F4F1"/>
<path d="M9.145 9.90234H7.625V11.4323H9.145V9.90234Z" fill="#F9F4F1"/>
<path d="M7.62375 11.4336H6.09375V12.9536H7.62375V11.4336Z" fill="#F9F4F1"/>
<path d="M6.09031 12.9531H4.57031V14.4731H6.09031V12.9531Z" fill="#F9F4F1"/>
<path d="M4.57469 14.4727H3.05469V16.0027H4.57469V14.4727Z" fill="#F9F4F1"/>
</svg>
