<svg width="32" height="32" viewBox="0 0 32 32" fill="none" xmlns="http://www.w3.org/2000/svg">
<g clip-path="url(#clip0_40000240_44067)">
<path d="M31.2388 8.38281H29.7188V20.5728H31.2388V8.38281Z" fill="#F9F4F1"/>
<path d="M29.7153 20.5703H28.1953V22.0903H29.7153V20.5703Z" fill="#F9F4F1"/>
<path d="M29.7153 6.86328H28.1953V8.38328H29.7153V6.86328Z" fill="#F9F4F1"/>
<path d="M28.1941 22.0898H26.6641V23.6198H28.1941V22.0898Z" fill="#F9F4F1"/>
<path d="M28.1941 5.33203H26.6641V6.86203H28.1941V5.33203Z" fill="#F9F4F1"/>
<path d="M26.6684 23.6211H25.1484V25.1411H26.6684V23.6211Z" fill="#F9F4F1"/>
<path d="M26.6684 3.8125H25.1484V5.3325H26.6684V3.8125Z" fill="#F9F4F1"/>
<path d="M25.1472 25.1406H23.6172V26.6606H25.1472V25.1406Z" fill="#F9F4F1"/>
<path d="M25.1438 12.9531H22.0938V16.0031H25.1438V12.9531Z" fill="#F9F4F1"/>
<path d="M25.1438 2.28125H22.0938V3.81125H25.1438V2.28125Z" fill="#F9F4F1"/>
<path d="M23.6181 26.6602H20.5781V28.1902H23.6181V26.6602Z" fill="#F9F4F1"/>
<path d="M20.5734 28.1914H17.5234V29.7114H20.5734V28.1914Z" fill="#F9F4F1"/>
<path d="M6.8525 29.7114V28.1914H5.3325V29.7114H3.8125V31.2414H17.5225V29.7114H6.8525Z" fill="#F9F4F1"/>
<path d="M17.5266 12.9531H14.4766V16.0031H17.5266V12.9531Z" fill="#F9F4F1"/>
<path d="M22.0919 0.761719H11.4219V2.28172H22.0919V0.761719Z" fill="#F9F4F1"/>
<path d="M11.4228 2.28125H8.38281V3.81125H11.4228V2.28125Z" fill="#F9F4F1"/>
<path d="M8.38938 26.6606H9.90937V25.1406H6.85938V28.1906H8.38938V26.6606Z" fill="#F9F4F1"/>
<path d="M9.90937 12.9531H6.85938V16.0031H9.90937V12.9531Z" fill="#F9F4F1"/>
<path d="M8.38594 3.8125H5.33594V5.3325H8.38594V3.8125Z" fill="#F9F4F1"/>
<path d="M6.85594 23.6211H5.33594V25.1411H6.85594V23.6211Z" fill="#F9F4F1"/>
<path d="M5.3325 22.0898H3.8125V23.6198H5.3325V22.0898Z" fill="#F9F4F1"/>
<path d="M5.3325 5.33203H3.8125V6.86203H5.3325V5.33203Z" fill="#F9F4F1"/>
<path d="M3.81906 20.5703H2.28906V22.0903H3.81906V20.5703Z" fill="#F9F4F1"/>
<path d="M3.81906 6.86328H2.28906V8.38328H3.81906V6.86328Z" fill="#F9F4F1"/>
<path d="M2.28563 8.38281H0.765625V20.5728H2.28563V8.38281Z" fill="#F9F4F1"/>
</g>
<defs>
<clipPath id="clip0_40000240_44067">
<rect width="32" height="32" fill="white"/>
</clipPath>
</defs>
</svg>
