<svg width="32" height="32" viewBox="0 0 32 32" fill="none" xmlns="http://www.w3.org/2000/svg">
<g clip-path="url(#clip0_40000240_44171)">
<path d="M30.4716 7.60938H28.9516V10.6594H25.9016V12.1894H22.8516V13.7094H25.9016V18.2794H24.3816V19.8094H25.9016V22.8494H27.4216V12.1894H28.9516V25.8994H27.4216V31.9994H32.0016V25.8994H30.4716V7.60938Z" fill="#F9F4F1"/>
<path d="M28.9484 6.08984H25.8984V7.60984H28.9484V6.08984Z" fill="#F9F4F1"/>
<path d="M25.9028 22.8516H24.3828V24.3816H25.9028V22.8516Z" fill="#F9F4F1"/>
<path d="M25.8969 9.14062H19.7969V10.6606H25.8969V9.14062Z" fill="#F9F4F1"/>
<path d="M25.9016 4.57031H22.8516V6.09031H25.9016V4.57031Z" fill="#F9F4F1"/>
<path d="M24.3781 24.3789H21.3281V25.8989H24.3781V24.3789Z" fill="#F9F4F1"/>
<path d="M24.3781 19.8086H21.3281V21.3286H24.3781V19.8086Z" fill="#F9F4F1"/>
<path d="M22.8469 13.7109H19.7969V15.2309H22.8469V13.7109Z" fill="#F9F4F1"/>
<path d="M22.8469 3.03906H19.7969V4.56906H22.8469V3.03906Z" fill="#F9F4F1"/>
<path d="M21.3306 25.8984H9.14062V27.4184H21.3306V25.8984Z" fill="#F9F4F1"/>
<path d="M21.3306 21.3281H9.14062V22.8481H21.3306V21.3281Z" fill="#F9F4F1"/>
<path d="M19.7978 15.2305H16.7578V16.7605H19.7978V15.2305Z" fill="#F9F4F1"/>
<path d="M19.8009 7.60938H13.7109V9.13938H19.8009V7.60938Z" fill="#F9F4F1"/>
<path d="M19.7978 1.51953H16.7578V3.03953H19.7978V1.51953Z" fill="#F9F4F1"/>
<path d="M16.7609 0H13.7109V1.52H16.7609V0Z" fill="#F9F4F1"/>
<path d="M16.7609 16.7617H13.7109V18.2817H16.7609V16.7617Z" fill="#F9F4F1"/>
<path d="M13.7063 1.51953H10.6562V3.03953H13.7063V1.51953Z" fill="#F9F4F1"/>
<path d="M13.7063 15.2305H10.6562V16.7605H13.7063V15.2305Z" fill="#F9F4F1"/>
<path d="M10.6594 3.03906H7.60938V4.56906H10.6594V3.03906Z" fill="#F9F4F1"/>
<path d="M9.14375 24.3789H6.09375V25.8989H9.14375V24.3789Z" fill="#F9F4F1"/>
<path d="M9.14375 19.8086H6.09375V21.3286H9.14375V19.8086Z" fill="#F9F4F1"/>
<path d="M10.6594 13.7109H7.60938V15.2309H10.6594V13.7109Z" fill="#F9F4F1"/>
<path d="M7.61031 4.57031H4.57031V6.09031H7.61031V4.57031Z" fill="#F9F4F1"/>
<path d="M6.09031 22.8516H4.57031V24.3816H6.09031V22.8516Z" fill="#F9F4F1"/>
<path d="M6.09344 19.8102V18.2802H4.57344V13.7102H7.61344V12.1902H4.57344V10.6602H1.52344V12.1902H3.04344V22.8502H4.57344V19.8102H6.09344Z" fill="#F9F4F1"/>
<path d="M4.57344 6.08984H1.52344V7.60984H4.57344V6.08984Z" fill="#F9F4F1"/>
<path d="M1.52 7.60938H0V10.6594H1.52V7.60938Z" fill="#F9F4F1"/>
</g>
<defs>
<clipPath id="clip0_40000240_44171">
<rect width="32" height="32" fill="white"/>
</clipPath>
</defs>
</svg>
