<svg width="32" height="32" viewBox="0 0 32 32" fill="none" xmlns="http://www.w3.org/2000/svg">
<path d="M30.4831 8.37891H28.9531V26.6689H30.4831V8.37891Z" fill="#F9F4F1"/>
<path d="M28.9541 26.668H25.9141V28.188H28.9541V26.668Z" fill="#F9F4F1"/>
<path d="M25.9172 25.1367H22.8672V26.6667H25.9172V25.1367Z" fill="#F9F4F1"/>
<path d="M22.8669 23.6172H18.2969V25.1372H22.8669V23.6172Z" fill="#F9F4F1"/>
<path d="M24.3825 16H19.8125V17.52H24.3825V16Z" fill="#F9F4F1"/>
<path d="M24.3825 11.4297H19.8125V12.9497H24.3825V11.4297Z" fill="#F9F4F1"/>
<path d="M24.3825 6.85938H19.8125V8.37937H24.3825V6.85938Z" fill="#F9F4F1"/>
<path d="M25.9169 3.80859H18.2969V5.32859H25.9169V3.80859Z" fill="#F9F4F1"/>
<path d="M19.8169 12.9492H18.2969V14.4792H19.8169V12.9492Z" fill="#F9F4F1"/>
<path d="M19.8169 8.37891H18.2969V9.90891H19.8169V8.37891Z" fill="#F9F4F1"/>
<path d="M18.2956 5.32812H16.7656V6.85813H18.2956V5.32812Z" fill="#F9F4F1"/>
<path d="M18.2966 25.1367H13.7266V26.6667H18.2966V25.1367Z" fill="#F9F4F1"/>
<path d="M15.2466 5.32812H13.7266V6.85813H15.2466V5.32812Z" fill="#F9F4F1"/>
<path d="M13.7206 23.6172H9.14062V25.1372H13.7206V23.6172Z" fill="#F9F4F1"/>
<path d="M13.7253 12.9492H12.1953V14.4792H13.7253V12.9492Z" fill="#F9F4F1"/>
<path d="M13.7253 8.37891H12.1953V9.90891H13.7253V8.37891Z" fill="#F9F4F1"/>
<path d="M12.195 16H7.625V17.52H12.195V16Z" fill="#F9F4F1"/>
<path d="M12.195 11.4297H7.625V12.9497H12.195V11.4297Z" fill="#F9F4F1"/>
<path d="M12.195 6.85938H7.625V8.37937H12.195V6.85938Z" fill="#F9F4F1"/>
<path d="M13.7216 3.80859H6.10156V5.32859H13.7216V3.80859Z" fill="#F9F4F1"/>
<path d="M9.14156 25.1367H6.10156V26.6667H9.14156V25.1367Z" fill="#F9F4F1"/>
<path d="M13.7247 20.5681V19.0481H9.14469V20.5681H6.10469V5.32812H4.57469V6.85813H3.05469V8.37813H4.57469V23.6181H9.14469V22.0981H13.7247V23.6181H18.2947V22.0981H22.8647V23.6181H27.4347V8.37813H28.9547V6.85813H27.4347V5.32812H25.9147V20.5681H22.8647V19.0481H18.2947V20.5681H16.7647V6.85813H15.2447V20.5681H13.7247Z" fill="#F9F4F1"/>
<path d="M6.10469 26.668H3.05469V28.188H6.10469V26.668Z" fill="#F9F4F1"/>
<path d="M3.05344 8.37891H1.52344V26.6689H3.05344V8.37891Z" fill="#F9F4F1"/>
</svg>
