<svg width="32" height="32" viewBox="0 0 32 32" fill="none" xmlns="http://www.w3.org/2000/svg">
<path d="M24.3794 3.04297H22.8594V12.193H24.3794V3.04297Z" fill="#F9F4F1"/>
<path d="M22.8559 12.1953H21.3359V15.2353H22.8559V12.1953Z" fill="#F9F4F1"/>
<path d="M21.3347 15.2344H19.8047V16.7644H21.3347V15.2344Z" fill="#F9F4F1"/>
<path d="M12.1884 16.7656V18.2856H15.2384V24.3856H10.6684V25.9056H9.14844V28.9556H10.6684V30.4756H21.3384V28.9556H22.8584V25.9056H21.3384V24.3856H16.7584V18.2856H19.8084V16.7656H12.1884Z" fill="#F9F4F1"/>
<path d="M12.1841 15.2344H10.6641V16.7644H12.1841V15.2344Z" fill="#F9F4F1"/>
<path d="M18.2884 3.04344H16.7584H9.14844V1.52344H22.8584V3.04344H18.2884Z" fill="#F9F4F1"/>
<path d="M10.6684 12.1953H9.14844V15.2353H10.6684V12.1953Z" fill="#F9F4F1"/>
<path d="M9.14719 3.04297H7.61719V12.193H9.14719V3.04297Z" fill="#F9F4F1"/>
</svg>
