<svg width="32" height="32" viewBox="0 0 32 32" fill="none" xmlns="http://www.w3.org/2000/svg">
<path d="M25.9103 10.6711H6.10031V7.62109H4.57031V12.1911H6.10031V21.3311H7.62031V27.4311H9.15031V25.9111H22.8603V27.4311H24.3803V21.3311H25.9103V12.1911H27.4303V7.62109H25.9103V10.6711ZM22.8603 24.3811H9.15031V22.8611H22.8603V24.3811ZM22.8603 19.8111H21.3403V21.3311H19.8103V19.8111H18.2903V21.3311H16.7603V19.8111H15.2403V21.3311H13.7203V19.8111H12.1903V21.3311H10.6703V19.8111H9.15031V18.2911H10.6703V19.8111H12.1903V18.2911H13.7203V19.8111H15.2403V18.2911H16.7603V19.8111H18.2903V18.2911H19.8103V19.8111H21.3403V18.2911H22.8603V19.8111ZM24.3803 16.7611H7.62031V15.2411H24.3803V16.7611ZM24.3803 13.7211H7.62031V12.1911H24.3803V13.7211Z" fill="#F9F4F1"/>
<path d="M24.3825 0H19.8125V1.52H24.3825V0Z" fill="#F9F4F1"/>
<path d="M21.3384 30.4797H10.6684V27.4297H9.14844V31.9997H22.8584V27.4297H21.3384V30.4797Z" fill="#F9F4F1"/>
<path d="M19.8091 1.51953H18.2891V3.04953H19.8091V1.51953Z" fill="#F9F4F1"/>
<path d="M18.2872 3.05078H7.61719V4.57078H18.2872V3.05078Z" fill="#F9F4F1"/>
<path d="M25.9116 7.61953V1.51953H24.3816V6.09953H7.62156V4.56953H6.10156V7.61953H25.9116Z" fill="#F9F4F1"/>
</svg>
