<svg width="32" height="32" viewBox="0 0 32 32" fill="none" xmlns="http://www.w3.org/2000/svg">
<g clip-path="url(#clip0_40000240_44141)">
<g clip-path="url(#clip1_40000240_44141)">
<path d="M30.4731 16.7617H28.9531V24.3817H30.4731V16.7617Z" fill="#F9F4F1"/>
<path d="M28.9519 1.51953H27.4219V7.61953H28.9519V1.51953Z" fill="#F9F4F1"/>
<path d="M27.4262 16.7609H28.9562V15.2409H27.4262V13.7109H25.9062V28.9509H27.4262V25.9009H28.9562V24.3809H27.4262V16.7609Z" fill="#F9F4F1"/>
<path d="M27.4262 7.62109H25.9062V9.14109H27.4262V7.62109Z" fill="#F9F4F1"/>
<path d="M27.4262 0H25.9062V1.52H27.4262V0Z" fill="#F9F4F1"/>
<path d="M25.905 28.9492H24.375V30.4792H25.905V28.9492Z" fill="#F9F4F1"/>
<path d="M25.905 12.1914H24.375V13.7114H25.905V12.1914Z" fill="#F9F4F1"/>
<path d="M24.3716 16.7617H22.8516V19.8117H24.3716V16.7617Z" fill="#F9F4F1"/>
<path d="M24.3716 3.05078H22.8516V6.09078H24.3716V3.05078Z" fill="#F9F4F1"/>
<path d="M24.3772 30.4805H7.61719V32.0005H24.3772V30.4805Z" fill="#F9F4F1"/>
<path d="M22.8547 15.2383H19.8047V16.7583H22.8547V15.2383Z" fill="#F9F4F1"/>
<path d="M22.8559 6.08984H21.3359V7.61984H22.8559V6.08984Z" fill="#F9F4F1"/>
<path d="M22.8559 1.51953H21.3359V3.04953H22.8559V1.51953Z" fill="#F9F4F1"/>
<path d="M22.8547 19.8086H19.8047V21.3286H22.8547V19.8086Z" fill="#F9F4F1"/>
<path d="M10.6641 24.3789V25.8989H12.1841V27.4289H13.7141V28.9489H18.2841V27.4289H19.8041V25.8989H21.3341V24.3789H10.6641Z" fill="#F9F4F1"/>
<path d="M19.8013 16.7617H18.2812V19.8117H19.8013V16.7617Z" fill="#F9F4F1"/>
<path d="M13.7109 22.8586H18.2809V21.3286H16.7509V19.8086H15.2309V21.3286H13.7109V22.8586Z" fill="#F9F4F1"/>
<path d="M13.7097 16.7617H12.1797V19.8117H13.7097V16.7617Z" fill="#F9F4F1"/>
<path d="M12.1806 19.8086H9.14062V21.3286H12.1806V19.8086Z" fill="#F9F4F1"/>
<path d="M12.1806 15.2383H9.14062V16.7583H12.1806V15.2383Z" fill="#F9F4F1"/>
<path d="M24.3772 12.19V10.67H16.7572V7.62H18.2872V6.09H19.8072V1.52H18.2872V0H13.7172V1.52H12.1872V6.09H13.7172V7.62H15.2372V10.67H7.61719V12.19H24.3772Z" fill="#F9F4F1"/>
<path d="M10.6606 6.08984H9.14062V7.61984H10.6606V6.08984Z" fill="#F9F4F1"/>
<path d="M10.6606 1.51953H9.14062V3.04953H10.6606V1.51953Z" fill="#F9F4F1"/>
<path d="M9.14719 16.7617H7.61719V19.8117H9.14719V16.7617Z" fill="#F9F4F1"/>
<path d="M9.14719 3.05078H7.61719V6.09078H9.14719V3.05078Z" fill="#F9F4F1"/>
<path d="M7.61375 28.9492H6.09375V30.4792H7.61375V28.9492Z" fill="#F9F4F1"/>
<path d="M7.61375 12.1914H6.09375V13.7114H7.61375V12.1914Z" fill="#F9F4F1"/>
<path d="M6.09687 13.7109H4.56687V15.2409H3.04688V16.7609H4.56687V24.3809H3.04688V25.9009H4.56687V28.9509H6.09687V13.7109Z" fill="#F9F4F1"/>
<path d="M6.0925 7.62109H4.5625V9.14109H6.0925V7.62109Z" fill="#F9F4F1"/>
<path d="M6.0925 0H4.5625V1.52H6.0925V0Z" fill="#F9F4F1"/>
<path d="M4.56687 1.51953H3.04688V7.61953H4.56687V1.51953Z" fill="#F9F4F1"/>
<path d="M3.04344 16.7617H1.52344V24.3817H3.04344V16.7617Z" fill="#F9F4F1"/>
</g>
</g>
<defs>
<clipPath id="clip0_40000240_44141">
<rect width="32" height="32" fill="white"/>
</clipPath>
<clipPath id="clip1_40000240_44141">
<rect width="32" height="32" fill="white"/>
</clipPath>
</defs>
</svg>
