<svg width="32" height="32" viewBox="0 0 32 32" fill="none" xmlns="http://www.w3.org/2000/svg">
<g clip-path="url(#clip0_40000240_44053)">
<path d="M22.8512 7.62156V10.6716H21.3312V15.2416H22.8512V16.7616H24.3812V18.2916H19.8112V19.8116H18.2812V21.3316H22.8512V24.3816H21.3312V27.4316H22.8512V28.9516H25.9012V27.4316H27.4312V25.9016H28.9513V22.8616H30.4712V19.8116H32.0012V12.1916H30.4712V9.14156H28.9513V6.10156H27.4312V7.62156H22.8512Z" fill="#F9F4F1"/>
<path d="M27.4284 4.57031H25.8984V6.10031H27.4284V4.57031Z" fill="#F9F4F1"/>
<path d="M25.9016 3.05078H22.8516V4.57078H25.9016V3.05078Z" fill="#F9F4F1"/>
<path d="M22.8525 28.9492H19.8125V30.4792H22.8525V28.9492Z" fill="#F9F4F1"/>
<path d="M22.8525 1.51953H19.8125V3.04953H22.8525V1.51953Z" fill="#F9F4F1"/>
<path d="M16.7606 28.9497H15.2406V27.4297H10.6606V28.9497H9.14062V30.4797H12.1906V31.9997H19.8106V30.4797H16.7606V28.9497Z" fill="#F9F4F1"/>
<path d="M19.8075 0H12.1875V1.52H19.8075V0Z" fill="#F9F4F1"/>
<path d="M10.6562 16.7609H12.1862V18.2909H13.7063V13.7109H10.6562V16.7609Z" fill="#F9F4F1"/>
<path d="M9.14375 27.4297H6.09375V28.9497H9.14375V27.4297Z" fill="#F9F4F1"/>
<path d="M6.09031 25.8984H4.57031V27.4284H6.09031V25.8984Z" fill="#F9F4F1"/>
<path d="M3.05 22.8595V25.8995H4.57V24.3795H6.09V22.8595H7.62V18.2895H6.09V16.7595H4.57V15.2395H3.05V13.7095H4.57V12.1895H9.14V10.6695H10.66V9.13953H12.19V10.6695H13.71V9.13953H15.24V6.09953H13.71V4.56953H10.66V3.04953H12.19V1.51953H9.14V3.04953H6.09V4.56953H4.57V6.09953H3.05V9.13953H1.52V12.1895H0V19.8095H1.52V22.8595H3.05Z" fill="#F9F4F1"/>
</g>
<defs>
<clipPath id="clip0_40000240_44053">
<rect width="32" height="32" fill="white"/>
</clipPath>
</defs>
</svg>
