<svg width="32" height="32" viewBox="0 0 32 32" fill="none" xmlns="http://www.w3.org/2000/svg">
<g clip-path="url(#clip0_40000240_44245)">
<path d="M31.2388 12.957H29.7188V19.047H31.2388V12.957Z" fill="#F9F4F1"/>
<path d="M9.9025 12.9547H11.4225V11.4247H12.9525V9.90469H19.0425V11.4247H20.5725V9.90469H25.1425V11.4247H26.6625V23.6147H28.1925V20.5747H29.7125V19.0447H28.1925V12.9547H29.7125V11.4247H28.1925V5.33469H26.6625V6.85469H25.1425V5.33469H22.0925V3.80469H11.4225V5.33469H9.9025V6.85469H8.3825V9.90469H6.8525V5.33469H5.3325V9.90469H3.8125V11.4247H9.9025V12.9547Z" fill="#F9F4F1"/>
<path d="M26.6684 23.6172H25.1484V25.1472H26.6684V23.6172Z" fill="#F9F4F1"/>
<path d="M26.6684 3.80469H25.1484V5.33469H26.6684V3.80469Z" fill="#F9F4F1"/>
<path d="M25.1472 20.5742H23.6172V22.0942H25.1472V20.5742Z" fill="#F9F4F1"/>
<path d="M25.1472 15.9961H23.6172V19.0461H25.1472V15.9961Z" fill="#F9F4F1"/>
<path d="M25.1472 2.28516H23.6172V3.80516H25.1472V2.28516Z" fill="#F9F4F1"/>
<path d="M11.4259 25.1445V28.1995H8.38594V29.7195H5.33594V31.2395H29.7159V29.7195H26.6659V28.1995H23.6159V26.6695H25.1459V25.1495L11.4259 25.1445ZM22.0959 29.7145H16.0059V28.1995H12.9559V26.6695H22.1009L22.0959 29.7145Z" fill="#F9F4F1"/>
<path d="M23.6169 22.0938H19.0469V23.6138H23.6169V22.0938Z" fill="#F9F4F1"/>
<path d="M19.0434 20.5742H17.5234V22.0942H19.0434V20.5742Z" fill="#F9F4F1"/>
<path d="M17.5278 15.9961H16.0078V19.0461H17.5278V15.9961Z" fill="#F9F4F1"/>
<path d="M19.0478 11.4258H16.0078V12.9558H19.0478V11.4258Z" fill="#F9F4F1"/>
<path d="M12.9519 12.957H11.4219V19.047H12.9519V12.957Z" fill="#F9F4F1"/>
<path d="M23.6163 0.765625H9.90625V2.28563H23.6163V0.765625Z" fill="#F9F4F1"/>
<path d="M11.4263 23.6172H9.90625V25.1472H11.4263V23.6172Z" fill="#F9F4F1"/>
<path d="M11.4263 19.0469H9.90625V20.5769H11.4263V19.0469Z" fill="#F9F4F1"/>
<path d="M3.8125 20.5742V22.0942H8.3825V23.6142H9.9025V20.5742H3.8125Z" fill="#F9F4F1"/>
<path d="M9.90281 2.28516H8.38281V3.80516H9.90281V2.28516Z" fill="#F9F4F1"/>
<path d="M8.38938 3.80469H6.85938V5.33469H8.38938V3.80469Z" fill="#F9F4F1"/>
<path d="M6.85594 12.957H5.33594V14.477H6.85594V12.957Z" fill="#F9F4F1"/>
<path d="M5.3325 14.4766H3.8125V17.5266H5.3325V14.4766Z" fill="#F9F4F1"/>
<path d="M3.81906 19.0469H2.28906V20.5769H3.81906V19.0469Z" fill="#F9F4F1"/>
<path d="M3.81906 11.4258H2.28906V12.9558H3.81906V11.4258Z" fill="#F9F4F1"/>
<path d="M2.28563 12.957H0.765625V19.047H2.28563V12.957Z" fill="#F9F4F1"/>
</g>
<defs>
<clipPath id="clip0_40000240_44245">
<rect width="32" height="32" fill="white"/>
</clipPath>
</defs>
</svg>
