<svg width="32" height="32" viewBox="0 0 32 32" fill="none" xmlns="http://www.w3.org/2000/svg">
<g clip-path="url(#clip0_40000240_44272)">
<path d="M25.1378 0V1.52H28.1878V3.05H29.7078V4.57H26.6678V3.05H25.1378V1.52H19.0478V3.05H22.0878V4.57H23.6178V6.09H20.5678V4.57H19.0478V3.05H12.9478V4.57H15.9978V6.09H17.5178V7.62H14.4778V6.09H12.9478V4.57H6.85781V6.09H9.89781V7.62H11.4278V9.14H8.37781V7.62H6.85781V6.09H0.757812V30.47H2.28781V19.81H29.7078V30.47H31.2378V13.71H2.28781V12.19H6.85781V10.66H12.9478V9.14H19.0478V7.62H25.1378V6.09H31.2378V0H25.1378ZM25.1378 16.76H26.6678V15.24H29.7078V16.76H28.1878V18.28H25.1378V16.76ZM17.5178 16.76H19.0478V15.24H22.0878V16.76H20.5678V18.28H17.5178V16.76ZM9.89781 16.76H11.4278V15.24H14.4778V16.76H12.9478V18.28H9.89781V16.76ZM3.80781 16.76V15.24H6.85781V16.76H5.32781V18.28H2.28781V16.76H3.80781ZM5.32781 10.66H2.28781V7.62H3.80781V9.14H5.32781V10.66Z" fill="#F9F4F1"/>
<path d="M29.7091 30.4688H2.28906V31.9988H29.7091V30.4688Z" fill="#F9F4F1"/>
<path d="M26.6703 22.8594H25.1403V24.3794H23.6203V22.8594H22.0903V24.3794H20.5703V25.8994H22.0903V27.4294H23.6203V28.9494H25.1403V27.4294H26.6703V25.8994H28.1903V24.3794H26.6703V22.8594Z" fill="#F9F4F1"/>
<path d="M17.5194 25.8984H6.85938V27.4284H17.5194V25.8984Z" fill="#F9F4F1"/>
<path d="M17.5194 22.8594H6.85938V24.3794H17.5194V22.8594Z" fill="#F9F4F1"/>
</g>
<defs>
<clipPath id="clip0_40000240_44272">
<rect width="32" height="32" fill="white"/>
</clipPath>
</defs>
</svg>
