<svg width="272" height="205" viewBox="0 0 272 205" fill="none" xmlns="http://www.w3.org/2000/svg">
<path d="M54.7188 9.24192L57.4072 20.724L68.7213 17.6435L65.1367 6.44141L54.7188 9.24192Z" fill="#10200B"/>
<path d="M55.171 21.399L52.4265 9.46875L42.7367 15.2938L39.9922 17.7023L47.4976 25.9358L55.171 21.399Z" fill="#0D1D08"/>
<path d="M45.93 26.7176L38.2566 19.3242L34.728 22.0687L27.3906 30.0782L37.2484 35.2872L45.93 26.7176Z" fill="#0F200B"/>
<path d="M36.2386 37.1349L26.2128 31.5898L21.1719 41.5037L31.4218 46.9927L36.2386 37.1349Z" fill="#0E1F0A"/>
<path d="M29.7949 56.513L31.1391 48.1674L20.4411 42.5664L17.6406 56.513H29.7949Z" fill="#0A1B06"/>
<path d="M17.5859 72.7045L28.676 70.8562L29.1801 58.4219H17.978L17.5859 72.7045Z" fill="#0F1F0B"/>
<path d="M16.75 74.2716L16.862 80.4888L29.2963 83.5693L29.4083 72.1992L16.75 74.2716Z" fill="#0A1B06"/>
<path d="M8.17969 90.7375L18.8777 95.8345L28.5114 84.8565L16.7493 82.168L8.17969 90.7375Z" fill="#182714"/>
<path d="M18.6565 97.4605L7.23036 91.6914L0.453125 106.142L12.4953 110.455L18.6565 97.4605Z" fill="#172713"/>
<path d="M11.4261 119.304L11.5941 111.518L1.00819 107.766L0 119.304H11.4261Z" fill="#071803"/>
<path d="M1.40278 136.497L12.1568 133.528L11.3726 121.094H0.226562L1.40278 136.497Z" fill="#071803"/>
<path d="M1.17188 138.065L7.33301 150.611L16.9668 143.666L12.9901 135.32L1.17188 138.065Z" fill="#0C1D08"/>
<path d="M7.78125 152.294L17.7511 162.376L26.6007 154.311L17.6951 145.293L7.78125 152.294Z" fill="#192814"/>
<path d="M18.8203 163.834L29.1262 170.667L31.0306 158.345L27.0538 154.984L18.8203 163.834Z" fill="#0C1D08"/>
<path d="M30.5234 170.611L44.246 174.028V162.713L32.5398 159.465L30.5234 170.611Z" fill="#1B2A17"/>
<path d="M45.25 162.319V174.977L55.8359 174.361L57.9643 161.871L45.25 162.319Z" fill="#2C3A28"/>
<path d="M66.4815 175.032L63.4009 166.07L58.0239 169.039L56.6797 178.729L59.0321 183.77L66.4815 175.032Z" fill="#152511"/>
<path d="M68.7768 193.459L71.0732 194.636L74.5459 184.33L67.5446 176.488L59.7031 184.274L62.4476 187.578L68.7768 193.459Z" fill="#0F200B"/>
<path d="M85.1322 201.136L90.8453 191.166L76.1146 185.453L72.5859 195.591L85.1322 201.136Z" fill="#1C2C18"/>
<path d="M86.6484 202.143L99.3628 204.384V192.173L92.0254 191.445L86.6484 202.143Z" fill="#0F1F0B"/>
<path d="M101.375 192.449V204.155L115.434 203.371L111.737 192.281L101.375 192.449Z" fill="#0D1D09"/>
<path d="M113.367 191.61L117.008 203.54L126.306 198.611L127.258 186.121L113.367 191.61Z" fill="#2F3C2A"/>
<path d="M137.164 180.804L147.47 184.557L146.07 180.692L139.516 170.891L137.164 180.804Z" fill="#283623"/>
<path d="M139.352 170.385L146.969 179.851L150.498 178.619V166.801L139.352 170.385Z" fill="#34412F"/>
<path d="M151.68 178.955L166.522 180.467L161.593 168.985L151.68 166.297V178.955Z" fill="#323F2D"/>
<path d="M162.602 169.319L167.642 179.905L171.507 178.504L170.499 166.91L162.602 169.319Z" fill="#263421"/>
<path d="M173.132 178.731L183.382 176.547L176.156 167.417L172.18 166.465L173.132 178.731Z" fill="#0F1F0B"/>
<path d="M184.502 175.257L187.47 171.28L185.734 160.246L176.828 167.135L184.502 175.257Z" fill="#313F2D"/>
<path d="M186.68 159.181L188.472 171.335L198.89 167.302L189.48 159.125L186.68 159.181Z" fill="#0B1C07"/>
<path d="M190.266 159.406L199.339 166.632L202.308 160.302L190.266 159.406Z" fill="#071803"/>
<path d="M190.266 158.231L202.028 159.184L201.972 157.615L190.322 155.711L190.266 158.231Z" fill="#13230F"/>
<path d="M197.376 155.989L201.185 156.661L202.473 147.531L194.352 150.108L197.376 155.989Z" fill="#465141"/>
<path d="M214.515 159.576V148.486L204.265 148.094L202.977 156.607L203.817 156.831V159.128L214.515 159.576Z" fill="#303D2B"/>
<path d="M216.648 159.855L230.651 158.622L224.042 149.381L216.648 148.316V159.855Z" fill="#0E1E0A"/>
<path d="M224.875 149.66L231.764 158.286L236.749 153.133L224.875 149.66Z" fill="#071803"/>
<path d="M225.438 148.429L235.855 151.957L228.07 144.172L225.438 148.429Z" fill="#253321"/>
<path d="M249.359 145.178L238.605 141.426L229.531 143.778L237.541 152.124L249.359 145.178Z" fill="#152511"/>
<path d="M239.445 140.586L249.863 144.003L242.078 136.441L239.445 140.586Z" fill="#152511"/>
<path d="M251.147 143.557L261.845 129.386L251.875 124.289L243.586 135.435L251.147 143.557Z" fill="#273522"/>
<path d="M263.635 127.26L270.3 113.09L258.089 110.457L251.984 122.443L263.635 127.26Z" fill="#22301D"/>
<path d="M270.25 110.901L271.371 97.9062H258.656L258.32 108.156L270.25 110.901Z" fill="#10200C"/>
<path d="M271.255 96.3971V89.6759L270.694 85.8672L258.82 86.8194V96.3971H271.255Z" fill="#12220E"/>
<path d="M269.916 84.1275L269.411 80.7669L266.387 70.293L255.297 73.0375L258.994 85.0797L269.916 84.1275Z" fill="#1A2915"/>
<path d="M254.394 70.9664L265.652 68.1659L255.851 52.707L247.617 60.9406L254.394 70.9664Z" fill="#192915"/>
<path d="M246.278 60.2117L255.128 51.3061L243.198 40.4961L237.148 51.194L246.278 60.2117Z" fill="#1F2E1B"/>
<path d="M241.517 40.0469L231.659 33.9418L227.906 32.9336L224.602 43.7996L236.028 50.5768L241.517 40.0469Z" fill="#202F1C"/>
<path d="M225.939 32.4852L219.946 30.8049L212.328 30.3008V42.9591L222.578 43.6872L225.939 32.4852Z" fill="#0F200B"/>
<path d="M196.594 42.6241L210.82 42.12V31.0859L196.594 31.366V42.6241Z" fill="#162612"/>
<path d="M189.986 31.7621L185.281 43.3562H195.587V30.7539L189.986 31.7621Z" fill="#0C1C08"/>
<path d="M184.5 42.0631L189.429 31.5892L179.907 22.8516L173.578 32.7094L184.5 42.0631Z" fill="#263522"/>
<path d="M172.906 31.3656L178.731 21.3958L165.345 14.5625L162.656 25.7085L172.906 31.3656Z" fill="#182713"/>
<path d="M152.344 24.2542L161.305 25.0383L164.162 14.0603L152.344 12.9961V24.2542Z" fill="#0E1F0A"/>
<path d="M138.008 12.3243L140.024 24.8706L151.282 24.9266V12.1562L138.008 12.3243Z" fill="#1C2B18"/>
<path d="M129.272 25.7664L138.906 24.4222L136.89 12.9961L121.711 16.4687L129.272 25.7664Z" fill="#0C1C08"/>
<path d="M116.672 20.5561V32.8223L127.874 26.4932L121.041 16.8594L116.672 20.5561Z" fill="#1A2915"/>
<path d="M109.776 30.1322L114.201 25.3153V20.3304L101.991 10.6406L98.4062 21.8987L109.776 30.1322Z" fill="#243220"/>
<path d="M96.6152 21.3417L100.368 9.91556L84.4609 5.88281V18.0931L96.6152 21.3417Z" fill="#152511"/>
<path d="M70.2344 6.21875L71.1305 17.4208H82.3326V6.21875H70.2344Z" fill="#091905"/>
<path d="M71.0706 19.7188L56.1719 23.8075L62.277 34.0014L72.975 31.2569L71.0706 19.7188Z" fill="#DEDBD6"/>
<path d="M43.9688 33.0499L49.7378 42.8517L60.8839 34.8982L55.2828 24.9844L43.9688 33.0499Z" fill="#D8D6D1"/>
<path d="M35 43.0726L46.09 49.6819L49.0586 44.5289L42.6734 33.2148L35 43.0726Z" fill="#C5C4BE"/>
<path d="M31.0781 59.2594H43.3444L45.5288 50.2977L34.9988 44.4727L31.0781 59.2594Z" fill="#DAD7D2"/>
<path d="M31.1406 72.2565H43.0148V61.7266H31.1406V72.2565Z" fill="#F0ECE9"/>
<path d="M30.4141 85.4701L41.5601 90.679L43.3524 74.8281H30.7501L30.4141 85.4701Z" fill="#DEDBD7"/>
<path d="M19.9375 99.2494L30.6355 104.962L40.7733 92.4162L30.0754 86.7031L19.9375 99.2494Z" fill="#C9C8C2"/>
<path d="M13.2188 113.814H25.541L29.9658 105.916L19.0438 100.539L13.2188 113.814Z" fill="#CBCAC4"/>
<path d="M25.5944 126.414L25.1463 115.156H13.3281L13.7762 127.479L25.5944 126.414Z" fill="#EBE6E3"/>
<path d="M14.5625 128.827L19.8835 143.11L29.6853 137.621L25.6525 127.875L14.5625 128.827Z" fill="#D9D6D1"/>
<path d="M20.7188 144.733L30.1845 155.318L35.7295 145.125L30.8566 139.188L20.7188 144.733Z" fill="#D2D0CA"/>
<path d="M31.8672 156.439L42.1171 160.584L45.7017 148.486L37.3002 145.293L31.8672 156.439Z" fill="#E5E2DE"/>
<path d="M47.4415 148.652L43.6328 160.695L56.5152 160.975V148.316L47.4415 148.652Z" fill="#F8F3F0"/>
<path d="M58.6394 160.582L62.4481 161.367L68.8333 151.901L58.3594 148.988L58.6394 160.582Z" fill="#F9F3F1"/>
<path d="M63.7969 162.372L68.2217 171.502L78.9756 168.029L70.2381 152.906L63.7969 162.372Z" fill="#EEEAE7"/>
<path d="M68.1094 173.297L74.3825 180.746L83.4562 172.625L80.3756 169.824L68.1094 173.297Z" fill="#D1D0CA"/>
<path d="M78.8047 183.66L90.8469 187.749L94.9356 176.883L84.0136 173.41L80.0929 176.883L78.8047 183.66Z" fill="#E7E3DF"/>
<path d="M91.625 188.139L107.532 189.764L105.516 178.674L95.5457 177.441L91.625 188.139Z" fill="#F7F1EF"/>
<path d="M106.25 178.058L108.378 190.212L124.229 184.779L119.804 173.129L106.25 178.058Z" fill="#EDE9E5"/>
<path d="M120.195 173.074L124.62 184.052L128.149 183.043V171.281L120.195 173.074Z" fill="#F7F1EF"/>
<path d="M128.93 176.209H135.035L128.93 170.664V176.209Z" fill="#F8F3F0"/>
<path d="M124.951 167.75L124.055 170.943L127.919 170.046L124.951 167.75Z" fill="#F9F3F1"/>
<path d="M138.062 171.004L138.51 169.379L139.854 168.931L141.871 166.579L134.309 157.449L125.516 167.083L135.205 174.252L138.062 171.004Z" fill="#F4EFEC"/>
<path d="M135.039 156.44L142.656 165.962L149.098 165.234V153.191L135.039 156.44Z" fill="#F4EFEC"/>
<path d="M150.156 165.567L151.444 165.679L164.215 166.519L158.894 154.981L150.156 152.797V165.567Z" fill="#F4EFEC"/>
<path d="M160.523 154.87L165.34 166.576L174.974 162.655L169.541 151.285L160.523 154.87Z" fill="#F3EEEC"/>
<path d="M170.664 151.395L176.545 161.645L184.779 158.004L185.059 146.242L170.664 151.395Z" fill="#F6F0EE"/>
<path d="M186.18 150.669L192.061 151.117L191.837 149.268L187.076 145.516L186.292 145.796L186.18 150.669Z" fill="#F8F3F0"/>
<path d="M182.086 141.371L180.742 146.58L186.063 144.564L182.086 141.371Z" fill="#F9F3F1"/>
<path d="M182.586 141.037L192.332 148.095L196.701 145.854L193.676 134.82L182.586 141.037Z" fill="#F8F2F0"/>
<path d="M194.297 134.481L197.433 145.683L206.619 145.851L206.339 134.312L194.297 134.481Z" fill="#F9F3F1"/>
<path d="M207.233 146.526L220.676 145.461L213.618 134.707L206.953 133.699L207.233 146.526Z" fill="#F8F3F1"/>
<path d="M214.742 134.873L221.407 144.507L234.514 137.505L224.992 130.336L214.742 134.873Z" fill="#F2EDEA"/>
<path d="M235.635 136.219L246.893 127.818L237.091 121.32L226.281 129.106L235.635 136.219Z" fill="#ECE8E4"/>
<path d="M247.84 127.259L253.217 115.329L242.687 109.336L238.094 119.922L247.84 127.259Z" fill="#ECE7E4"/>
<path d="M242.578 108.827L254.004 114.877L257.981 96.6172H245.099L242.578 108.827Z" fill="#ECE8E5"/>
<path d="M243.305 85.4173L245.209 95.0511H257.811L254.451 80.1523L243.305 85.4173Z" fill="#F2EDEA"/>
<path d="M237.875 72.1454L243.028 83.6835L254.23 78.2505L248.853 66.3203L237.875 72.1454Z" fill="#EBE6E3"/>
<path d="M229.75 62.6784L237.535 71.36L247.393 64.9748L236.247 52.1484L229.75 62.6784Z" fill="#D4D2CD"/>
<path d="M217.32 56.9096L227.906 62.1185L234.74 51.8126L217.32 44.3633V56.9096Z" fill="#D8D6D1"/>
<path d="M215.47 56.5736V44.3074L204.828 44.0273V56.0696L215.47 56.5736Z" fill="#F4EFEC"/>
<path d="M193.738 56.6842L203.315 55.7881V44.418L191.945 45.2021L193.738 56.6842Z" fill="#F5F0ED"/>
<path d="M183.938 45.4807L178.281 56.5708L192.284 57.2429L190.548 44.8086L183.938 45.4807Z" fill="#E7E3E0"/>
<path d="M166.18 44.8103L176.99 55.2282L182.703 45.2584L174.469 36.6328L166.18 44.8103Z" fill="#E9E5E1"/>
<path d="M159.466 26.3828L157.617 39.0411L165.123 44.1941L173.86 35.0644L159.466 26.3828Z" fill="#D3D2CC"/>
<path d="M156.157 38.5932L157.837 26.495L143.555 25.8789V38.1452L156.157 38.5932Z" fill="#F4EFEC"/>
<path d="M126.914 29.8569L130.219 41.6191L141.477 38.2585V25.9922L126.914 29.8569Z" fill="#E8E4E0"/>
<path d="M115.824 36.1869L112.016 47.1089L128.875 41.844L125.458 30.7539L115.824 36.1869Z" fill="#D4D2CC"/>
<path d="M97.5078 38.2575L110.67 46.547L114.479 36.0171L103.277 28.5117L97.5078 38.2575Z" fill="#E4E0DC"/>
<path d="M85.4141 32.4862L96.056 38.1432L101.377 26.7171L89.7269 20.5L85.4141 32.4862Z" fill="#E0DCD8"/>
<path d="M74.2124 31.1997L83.3981 31.7038L87.9349 20.8378L73.8203 19.4375L74.2124 31.1997Z" fill="#F0ECE8"/>
<path d="M58.3047 38.5358L64.9699 47.6095L74.6037 44.697L73.9316 33.2148L60.041 37.4156L58.3047 38.5358Z" fill="#F9F3F1"/>
<path d="M46.2578 52.2025L57.6279 56.5153L64.1251 48.6738L57.6839 39.8242L55.7235 41.1685L46.2578 52.2025Z" fill="#F9F3F1"/>
<path d="M56.1786 65.2543L56.6827 58.309L46.3768 53.6602L44.9766 64.8062L56.1786 65.2543Z" fill="#F9F3F1"/>
<path d="M56.1241 72.1989L56.5722 66.2618L51.5312 66.0938L53.0435 72.1989H56.1241Z" fill="#F9F3F1"/>
<path d="M64.6328 72.2532L67.5453 60.043H58.5837L57.6875 72.2532H64.6328Z" fill="#F9F3F1"/>
<path d="M68.6145 60.2125L65.4219 72.0307L76.0078 71.6946V59.4844L68.6145 60.2125Z" fill="#F9F3F1"/>
<path d="M77.4609 59.2598V63.8526L80.9896 69.5657L91.3515 65.589L91.2955 53.8828L77.4609 59.2598Z" fill="#F9F3F1"/>
<path d="M93.0886 65.868L102.722 68.0524L109.556 57.3544L92.9766 53.0977L93.0886 65.868Z" fill="#F9F3F1"/>
<path d="M104.18 67.9423L117.622 72.2551L121.543 61.6692L110.509 58.4766L104.18 67.9423Z" fill="#F9F3F1"/>
<path d="M119.297 73.4289L127.81 78.1338L132.011 66.2036L123.162 61.3867L119.297 73.4289Z" fill="#F9F3F1"/>
<path d="M131.68 71.9186L136.833 75.1672L140.361 70.4064L133.528 66.5977L131.68 71.9186Z" fill="#F9F3F1"/>
<path d="M144.568 65.4223L139.247 53.8281L130.453 64.134L141.207 69.7911L144.568 65.4223Z" fill="#F9F3F1"/>
<path d="M140.078 53.937L145.511 64.691L154.137 63.7948L154.249 51.8086L140.078 53.937Z" fill="#F9F3F1"/>
<path d="M155.258 64.1896L163.267 64.8618L167.636 52.8196L155.314 51.3633L155.258 64.1896Z" fill="#F9F3F1"/>
<path d="M161.311 42.7344L157.055 50.6318L167.417 51.808L161.311 42.7344Z" fill="#F9F3F1"/>
<path d="M147.411 51.0823L156.204 49.8501L160.237 42.4007L145.898 39.8242L147.411 51.0823Z" fill="#F9F3F1"/>
<path d="M145.906 51.4171L144.674 39.7109L139.969 41.1672V52.4813L145.906 51.4171Z" fill="#F9F3F1"/>
<path d="M128.094 44.8658L134.983 54.4435L138.68 52.7632V41.6172L128.094 44.8658Z" fill="#F9F3F1"/>
<path d="M117.676 59.0925L121.765 60.2688L134.703 55.2839L127.254 44.7539L116.836 49.0107L117.676 59.0925Z" fill="#F9F3F1"/>
<path d="M105.916 46.5469L100.875 54.3883L110.229 56.9088V48.6193L105.916 46.5469Z" fill="#F9F3F1"/>
<path d="M117.115 58.3119L116.331 49.7423L111.57 49.4062V56.7996L117.115 58.3119Z" fill="#F9F3F1"/>
<path d="M92.5837 52.3178L99.809 54.1102L105.41 46.1007L94.264 37.8672L88.0469 48.9012L92.5837 52.3178Z" fill="#F9F3F1"/>
<path d="M87.0403 47.668L92.4733 37.8662L76.7344 33.4414V44.6435L87.0403 47.668Z" fill="#F9F3F1"/>
<path d="M175.704 57.6367L165.398 64.638L171.055 71.1912L182.818 66.3743L175.704 57.6367Z" fill="#F9F3F1"/>
<path d="M171.445 72.6489L172.509 78.9781L184.944 80.5464L182.871 67.832L171.445 72.6489Z" fill="#F9F3F1"/>
<path d="M171.836 84.9705L181.806 90.4035L184.102 81.9459L173.124 80.2656L171.836 84.9705Z" fill="#EAE6E2"/>
<path d="M173.461 97.965L176.261 95.1085V88.2192L173.461 86.875V97.965Z" fill="#81887B"/>
<path d="M177.72 57.1875L177.328 57.9156L186.962 71.5261L186.626 59.0358L177.72 57.1875Z" fill="#F9F3F1"/>
<path d="M187.297 59.3144L187.633 71.7487L201.075 70.1804L200.739 57.7461L187.297 59.3144Z" fill="#F9F3F1"/>
<path d="M213.452 70.0135L217.149 58.8115L202.25 58.0273L202.586 69.8455L213.452 70.0135Z" fill="#F9F3F1"/>
<path d="M231.437 66.7086L230.149 65.4763L218.835 59.0352L214.914 70.4613L222.363 74.1019L231.437 66.7086Z" fill="#F9F3F1"/>
<path d="M240.457 81.4374L233.512 68.8351L232.223 67.5469L223.43 74.9962L229.199 84.406L240.457 81.4374Z" fill="#F9F3F1"/>
<path d="M243.811 94.3795L241.123 82.2812L229.641 85.3618L231.937 94.3795H243.811Z" fill="#E7E3DF"/>
<path d="M237.88 101.325L236.704 95.332H224.886L224.438 99.4208L237.88 101.325Z" fill="#84897D"/>
<path d="M229.024 87.8805L225.439 87.1523L224.711 93.8736H230.648L229.024 87.8805Z" fill="#777D71"/>
<path d="M212.391 87.4911V99.6453L222.977 99.0852L224.321 87.043L212.391 87.4911Z" fill="#8F9389"/>
<path d="M194.469 93.7059L211.608 99.699V87.1527L200.518 82.6719L194.469 93.7059Z" fill="#B2B3AB"/>
<path d="M199.393 82.2276L186.062 79.3711L187.071 92.2535L193.848 93.7097L199.393 82.2276Z" fill="#C9C8C2"/>
<path d="M184.942 84.5234L182.422 92.925L185.726 91.8048L184.942 84.5234Z" fill="#93978D"/>
<path d="M177.609 88.7773L180.634 93.8743L181.25 93.6502L182.034 90.9617L177.609 88.7773Z" fill="#CBCAC3"/>
<path d="M141.086 71.304L150.384 77.4091L150.776 76.905L146.911 66.207L143.942 68.1114L141.086 71.304Z" fill="#F9F3F1"/>
<path d="M149.268 77.9683L141.091 72.0312L139.915 73.4875L138.57 78.9205L149.268 77.9683Z" fill="#F9F3F1"/>
<path d="M137.734 80.1501L140.815 86.5913L150.113 79.2539L137.734 80.1501Z" fill="#E4E1DD"/>
<path d="M141.258 87.2086L148.315 90.9613L150.275 79.5352L141.258 87.2086Z" fill="#B0B2AA"/>
<path d="M151.725 79.7019L149.82 90.5679L163.823 89.0556L158.39 79.4219L151.725 79.7019Z" fill="#9CA096"/>
<path d="M159.516 78.6406L165.229 89.3386L170.158 83.5695L159.516 78.6406Z" fill="#DEDBD7"/>
<path d="M160.133 78.0791L169.935 82.784L170.327 75.3906L160.133 78.0791Z" fill="#F4EFEC"/>
<path d="M160.078 76.9587L170.216 74.3823L167.191 68.7812L160.078 76.9587Z" fill="#F9F3F1"/>
<path d="M159.406 76.5665L166.688 68.333L160.302 65.8125L159.406 76.5665Z" fill="#F9F3F1"/>
<path d="M151.614 76.9001L158.112 77.0681L159.12 65.642L153.631 65.418L148.758 65.9221L151.614 76.9001Z" fill="#F7F1EF"/>
<path d="M80.9297 72.0311L90.7315 78.4723L87.3149 68.8945L83.1141 70.4068L80.9297 72.0311Z" fill="#F9F3F1"/>
<path d="M78.5859 79.1979H90.4601L80.6583 72.3086L78.5859 79.1979Z" fill="#F9F3F1"/>
<path d="M82.7234 86.3708L83.9556 80.0977H70.2891L72.5855 86.0908L82.7234 86.3708Z" fill="#F4EFED"/>
<path d="M79.3153 73.9336L68.2812 74.1016L70.1296 79.1986H77.747L79.3153 73.9336Z" fill="#F9F3F1"/>
<path d="M66.4297 75.0549L69.0062 87.2652L71.8067 86.145L67.8299 74.3828L66.4297 75.0549Z" fill="#F7F2F0"/>
<path d="M66.8194 80.0935L65.6432 75.5566L55.2812 73.8203L56.3454 84.6863L62.7866 85.0784L66.8194 80.0935Z" fill="#F9F3F1"/>
<path d="M55.2812 84.6878L54.385 73.2617L48.3359 75.2781L55.2812 84.6878Z" fill="#F9F3F1"/>
<path d="M43.9141 82.896L54.444 85.8646L54.724 85.3045L47.7228 75.3906L43.9141 82.896Z" fill="#F8F3F1"/>
<path d="M54.7178 86.4828L43.1797 83.7383L43.6278 91.2437L54.7178 86.4828Z" fill="#E7E3DF"/>
<path d="M43.9688 92.0252L48.9537 97.5142L54.7787 87.3203L43.9688 92.0252Z" fill="#B2B3AB"/>
<path d="M55.398 87.1523L49.4609 98.0183L57.3584 99.1946L55.398 87.1523Z" fill="#6E7668"/>
<path d="M56.0625 86.7032L58.0229 99.3055L62.3357 98.4654V86.5352L56.0625 86.7032Z" fill="#8F9489"/>
<path d="M66.7109 97.2933L63.8543 85.8672L63.4062 86.5393V97.9654L66.7109 97.2933Z" fill="#D1CFC9"/>
<path d="M72.7549 99.3089L71.8587 87.8828L69.3943 88.4989L66.5938 92.5317L67.6579 97.2926L72.7549 99.3089Z" fill="#CECDC7"/>
<path d="M73.5938 87.7109L74.5459 99.4731L90.0048 96.5046L82.3313 87.7109H73.5938Z" fill="#80867A"/>
<path d="M83.3984 87.7695L91.1839 95.891L94.9926 89.7299L83.3984 87.7695Z" fill="#878C81"/>
<path d="M99.2473 94.9407L96.7269 89.8438L95.4386 90.5719L92.4141 95.6128L99.2473 94.9407Z" fill="#777E71"/>
<path d="M92.3052 96.5641L90.9609 99.0285L99.0824 100.429L99.1384 95.8359L92.3052 96.5641Z" fill="#757C6F"/>
<path d="M95.2162 104.91L91.6876 100.093L86.8707 99.3086L84.4062 101.549L95.2162 104.91Z" fill="#697164"/>
<path d="M92.8077 110.732L95.1601 105.915L84.7422 102.219L92.8077 110.732Z" fill="#727A6D"/>
<path d="M87.5932 106.812L78.7436 99.8672L75.9991 100.427L75.0469 112.133L87.5932 112.694V106.812Z" fill="#81877B"/>
<path d="M64.2422 100.483V112.413L73.3159 111.909L74.212 100.763L72.9798 100.987L70.0673 100.203L64.2422 100.483Z" fill="#82887C"/>
<path d="M55.2812 112.803H63.1227V100.145H55.2812V112.803Z" fill="#71786B"/>
<path d="M48.6694 107.542L54.4384 105.245V100.429L52.4781 99.8125L48.4453 106.87L48.6694 107.542Z" fill="#BEBEB6"/>
<path d="M48.1112 106.31L51.8079 99.5328L46.7109 98.8047L48.1112 106.31Z" fill="#D7D5D0"/>
<path d="M44.9137 95.4453L38.9766 98.3018L46.706 106.087L44.9137 95.4453Z" fill="#F9F3F1"/>
<path d="M34.7266 105.077L47.1048 107.093L37.9752 98.3555L34.7266 105.077Z" fill="#F9F3F1"/>
<path d="M35.9575 114.822L47.1035 109.445L47.2155 108.157L34.7812 106.309L35.9575 114.822Z" fill="#F9F3F1"/>
<path d="M36.9609 116L45.6985 124.737L50.4034 113.479L46.9868 110.062L36.9609 116Z" fill="#F8F2F0"/>
<path d="M47.6094 125.243L61.3879 126.363V113.48L52.2022 113.536L47.6094 125.243Z" fill="#F8F3F0"/>
<path d="M72.5878 126.135L73.54 113.701L63.9062 113.645V126.191L72.5878 126.135Z" fill="#F8F3F1"/>
<path d="M74.5469 126.08H84.3487L85.3009 113.758H75.4991L74.5469 126.08Z" fill="#F9F3F1"/>
<path d="M95.0487 112.805L87.5993 113.645L86.7031 126.079L100.37 123.783L95.0487 112.805Z" fill="#F8F2F0"/>
<path d="M100.648 120.255L102.441 123.895L110.73 126.248V113.421L100.648 111.293V120.255Z" fill="#F1EDEA"/>
<path d="M112.578 126.363L126.133 126.923L126.357 114.041L112.578 113.48V126.363Z" fill="#F8F3F0"/>
<path d="M134.819 122.214L134.483 121.262L128.042 121.374L127.93 127.535L134.819 122.214Z" fill="#F7F1EF"/>
<path d="M125.242 129.947L132.748 135.94L136.612 123.786L135.268 122.609L125.242 129.947Z" fill="#F8F2F0"/>
<path d="M133.859 135.211H144.165L140.469 124.793H137.556L133.859 135.211Z" fill="#F9F3F1"/>
<path d="M141.203 124.008L145.18 135.826L151.341 131.009L141.203 124.008Z" fill="#F9F3F1"/>
<path d="M141.312 123.559L151.618 130.56L153.803 122.551L141.312 123.559Z" fill="#F7F1EF"/>
<path d="M142.156 122.832L152.91 121.824L150.222 114.879L142.156 122.832Z" fill="#C7C6BF"/>
<path d="M132.18 113.757L140.693 122.214L149.207 114.317L140.693 105.859L132.18 113.757Z" fill="#9DA197"/>
<path d="M131.062 112.528L140.192 105.078L133.079 101.438L131.062 112.528Z" fill="#6E7568"/>
<path d="M118.519 112.3L130.393 113.364L132.522 100.65L116.391 99.5859L118.519 112.3Z" fill="#AFB1A8"/>
<path d="M108.992 112.134L117.842 112.077L115.825 99.7552L109.272 99.6992L108.992 112.134Z" fill="#95988E"/>
<path d="M103.672 109.781L104.512 110.173L108.433 104.404L108.377 99.5312L103.672 109.781Z" fill="#646D5F"/>
<path d="M105.802 102.779L109.778 94.2656L100.537 96.0019L100.481 100.595L99.6406 102.611L105.802 102.779Z" fill="#5F685A"/>
<path d="M112.133 98.9722L112.357 93.2031L111.236 93.4272L109.164 98.02L112.133 98.9722Z" fill="#B3B5AC"/>
<path d="M118.851 92.1953L113.138 93.3155L112.914 98.9165L122.492 99.1406L118.851 92.1953Z" fill="#72796C"/>
<path d="M116.218 87.9365L107.312 87.1523V93.5935L118.01 91.4651L116.218 87.9365Z" fill="#82887C"/>
<path d="M117.68 88.4414L123.169 98.5793L127.986 93.1463L117.68 88.4414Z" fill="#90958A"/>
<path d="M117.789 87.4907L128.151 92.6997L128.991 84.4102L117.789 87.4907Z" fill="#CBCAC4"/>
<path d="M117.391 86.3675L129.377 83.735L125.512 78.4141L117.391 86.3675Z" fill="#F8F3F0"/>
<path d="M112.297 84.9691L116.722 86.4254L124.675 77.6878L113.305 73.375L112.297 84.9691Z" fill="#F8F3F0"/>
<path d="M105.91 74.2166L102.773 85.9788L110.895 85.1946L111.847 72.9844L105.91 74.2166Z" fill="#F8F3F0"/>
<path d="M97.4588 82.1118L103.452 79.0872L104.852 73.7102L101.716 68.6133L96.2266 79.8714L97.4588 82.1118Z" fill="#F6F1EE"/>
<path d="M100.925 69.0617L91.8509 67.7734L90.2266 68.3335L91.9629 78.4154L95.3795 78.6954L100.925 69.0617Z" fill="#F8F3F0"/>
<path d="M211.443 71.9727L206.234 83.0067L210.323 85.1351L214.86 73.765L211.443 71.9727Z" fill="#F9F3F1"/>
<path d="M176.938 98.7505L186.515 105.752L186.851 105.248L183.267 93.9336L176.938 98.7505Z" fill="#737A6D"/>
<path d="M174.977 101.492L180.914 112.078L186.515 106.421L176.321 99.5312L174.977 101.492Z" fill="#878C80"/>
<path d="M163.047 111.129L176.265 113.257V106.2L173.969 101.551L168.76 101.047L163.047 111.129Z" fill="#91958B"/>
<path d="M159.91 109.391L162.038 110.567L168.199 100.765L157.781 98.3008L159.91 109.391Z" fill="#888D82"/>
<path d="M150.555 100.933L159.18 109.223L157.22 97.9648L150.555 100.933Z" fill="#D1D0CA"/>
<path d="M146.914 107.88L158.956 109.84L150.107 101.215L146.914 107.88Z" fill="#C0C0B9"/>
<path d="M147.023 108.887L147.247 110.399L151.616 114.152L158.618 110.679L147.023 108.887Z" fill="#E1DEDA"/>
<path d="M160.917 113.48L159.013 111.855L152.18 115.608L156.38 123.394L160.917 113.48Z" fill="#F8F3F1"/>
<path d="M173.072 125.577L172.792 114.543L169.32 114.039L162.094 113.703L156.773 124.121L173.072 125.577Z" fill="#F8F3F0"/>
<path d="M173.516 114.766L173.74 125.576L176.54 125.408V115.27L173.516 114.766Z" fill="#F9F3F1"/>
<path d="M188.251 125.015L184.331 113.812L177.609 114.933V125.575L188.251 125.015Z" fill="#F9F3F1"/>
<path d="M185.562 113.757L189.091 124.455L195.42 119.19L186.347 112.805L185.562 113.757Z" fill="#F8F3F1"/>
<path d="M193.789 122.384L199.95 125.856L200.174 122.608L196.59 120.031L193.789 122.384Z" fill="#F9F3F1"/>
<path d="M201.189 113.423L197.437 110.566L192.508 115.831L200.517 121.656L201.189 113.423Z" fill="#F5F0ED"/>
<path d="M201.359 126.191H215.138L216.146 113.645H202.368L201.359 126.191Z" fill="#F8F3F0"/>
<path d="M227.116 126.529L227.9 125.857L227.676 114.375L217.594 113.871L216.586 126.025L227.116 126.529Z" fill="#F9F3F1"/>
<path d="M229.023 114.934L229.247 125.239L233.84 121.767L229.023 114.934Z" fill="#F9F3F1"/>
<path d="M229.359 114.598L234.456 121.319L236.809 119.639L238.041 117.286L229.359 114.598Z" fill="#F9F3F1"/>
<path d="M229.812 113.703L238.158 116.224L241.071 110.23L229.812 113.703Z" fill="#EBE7E3"/>
<path d="M229.359 112.806L241.178 109.165L236.361 103.508L229.359 112.806Z" fill="#DBD8D3"/>
<path d="M228.58 113.31L235.469 102.892L221.13 100.203L220.906 112.861L228.58 113.31Z" fill="#A5A79E"/>
<path d="M204.945 112.132H219.564L219.844 101.098L205.225 101.77L204.945 112.132Z" fill="#9EA197"/>
<path d="M198.335 109.559L200.295 111.016L203.936 104.91L204.048 99.9816L197.383 96.957L198.335 109.559Z" fill="#798073"/>
<path d="M196.431 97.9062L193.07 109.22L197.439 108.94L196.431 97.9062Z" fill="#A9ACA3"/>
<path d="M194.463 102.276L195.919 97.5712L194.183 95.0508L188.414 104.797L194.463 102.276Z" fill="#D7D5D0"/>
<path d="M186.125 93.3164L188.029 104.799L193.63 94.4926L186.125 93.3164Z" fill="#D0CFC9"/>
<path d="M28 126.919L34.7212 140.642L42.7307 132.464L39.034 124.062L28 126.919Z" fill="#F9F3F1"/>
<path d="M35.8438 141.989L44.3573 147.254L46.9898 134.82L43.7412 132.859L35.8438 141.989Z" fill="#F9F3F1"/>
<path d="M46.2031 147.305L60.4298 147.529L61.998 134.871L49.0036 135.039L46.2031 147.305Z" fill="#F9F3F1"/>
<path d="M62.4531 147.2L70.4066 150.448L77.5199 141.206L64.0214 135.773L62.4531 147.2Z" fill="#F9F3F1"/>
<path d="M71.6875 151.619L78.1847 160.861L89.1627 156.884L78.8008 142.77L71.6875 151.619Z" fill="#F9F3F1"/>
<path d="M78.3047 162.826L83.6817 170.443L89.8988 159.577L90.0668 158.457L78.3047 162.826Z" fill="#F9F3F1"/>
<path d="M97.3978 176.435L100.59 176.939V164.84L90.6205 159.688L85.1875 171.058L97.3978 176.435Z" fill="#F9F3F1"/>
<path d="M102.828 176.879L104.564 177.103L119.743 171.726L114.534 160.188L102.828 164.948V176.879Z" fill="#F9F3F1"/>
<path d="M120.646 170.552L124.735 166.016L116.053 159.07L115.773 160.471L120.646 170.552Z" fill="#F9F3F1"/>
<path d="M129.827 144.898L116.328 157.277L125.626 164.446L133.355 155.932V151.116L129.827 144.898Z" fill="#F9F3F1"/>
<path d="M131.062 143.777L136.72 153.635L144.673 151.507L144.337 140.305L131.062 143.777Z" fill="#F9F3F1"/>
<path d="M146.578 151.452L160.133 152.404L159.237 141.034L146.242 140.082L146.578 151.452Z" fill="#F9F3F1"/>
<path d="M161.305 140.585L162.257 152.291L176.259 146.298L170.938 135.824L161.305 140.585Z" fill="#F9F3F1"/>
<path d="M177.382 145.742L183.039 138.797L174.078 131.012L172.117 134.876L177.382 145.742Z" fill="#F9F3F1"/>
<path d="M172.227 133.307L174.075 130.058L178.5 134.147L179.116 127.146L172.227 127.09V133.307Z" fill="#F9F3F1"/>
<path d="M168.023 127.031V135.993L170.712 134.481V127.031H168.023Z" fill="#F9F3F1"/>
<path d="M159.625 138.908L166.962 135.939V127.762H159.905L159.625 138.908Z" fill="#F9F3F1"/>
<path d="M36.0136 118.633L34.4453 124.01L39.8223 122.722L43.9671 132.075L45.3673 132.803V125.522L36.0136 118.633Z" fill="#F9F3F1"/>
<path d="M47.3805 133.643L48.6128 127.146L46.4844 126.25V133.195L47.3805 133.643Z" fill="#F9F3F1"/>
<path d="M48.5 134.201L61.8865 134.313V126.863L49.7882 126.975L48.5 134.201Z" fill="#F9F3F1"/>
<path d="M63.8516 134.2L75.8378 138.961V127.703H63.8516V134.2Z" fill="#F9F3F1"/>
<path d="M77.2344 139.075H91.1809L90.8449 127.648H77.2344V139.075Z" fill="#F9F3F1"/>
<path d="M92.8113 139.69H105.302L106.534 127.031H92.5312L92.8113 139.69Z" fill="#F9F3F1"/>
<path d="M106.758 138.964H118.072L117.736 127.93L108.158 127.762L106.758 138.964Z" fill="#F9F3F1"/>
<path d="M126.135 146.301L129.776 142.717L132.073 136.444L124.623 130.73L119.078 134.707L119.302 141.484L126.135 146.301Z" fill="#F9F3F1"/>
<path d="M133.08 136.723L131.008 142.604L141.93 139.523L141.706 137.115L133.08 136.723Z" fill="#F9F3F1"/>
<path d="M156.876 139.409L150.491 133.191L145.898 136.44V138.568L156.876 139.409Z" fill="#F9F3F1"/>
<path d="M158.512 139.355L158.568 134.762L152.575 131.121L151.062 132.857L157.84 139.299L158.512 139.355Z" fill="#F9F3F1"/>
<path d="M93.6484 140.982L94.6006 152.576L99.3055 151.68V140.926L93.6484 140.982Z" fill="#F9F3F1"/>
<path d="M91.0143 157.561L98.6317 152.688L93.9269 153.64L93.4228 147.703L87.4297 148.431L91.0143 157.561Z" fill="#F9F3F1"/>
<path d="M96.395 161.759L101.156 151.957L91.5781 158.006L96.395 161.759Z" fill="#F9F3F1"/>
<path d="M97.1172 161.757L103.67 163.157L101.43 153.523L97.1172 161.757Z" fill="#F9F3F1"/>
<path d="M110.507 160.414L106.586 149.324L101.938 152.853L104.514 162.823L110.507 160.414Z" fill="#F9F3F1"/>
<path d="M109.223 153.523L114.992 156.772L118.801 148.706L107.711 147.586L109.223 153.523Z" fill="#F9F3F1"/>
<path d="M112.183 147.422L115.319 141.933L107.422 140.98V146.974L112.183 147.422Z" fill="#F9F3F1"/>
<path d="M102.495 140.641L101.375 148.426L106.248 146.97V141.033L102.495 140.641Z" fill="#F9F3F1"/>
<path d="M66.2031 0L68.4435 12.4343H69.3957L68.7796 5.37699L67.3233 5.09694L66.2031 0Z" fill="#071803"/>
<path d="M102.55 26.2713L97.117 22.3505L94.1484 21.5664V22.2385L102.55 26.2713Z" fill="#8D9287"/>
<path d="M115.159 35.2857L117.008 34.0535V32.8213L115.103 33.6614L115.047 26.6602L110.734 31.6451L115.159 35.2857Z" fill="#2B3927"/>
<path d="M132.461 41.7852L122.211 45.2018V46.266L132.461 41.7852Z" fill="#F9F3F1"/>
<path d="M114.148 47.7795L116.669 48.5076L120.366 46.8273V45.5391L114.148 47.7795Z" fill="#F9F3F1"/>
<path d="M156.991 39.5457L148.758 39.2656L159.568 41.058L156.991 39.5457Z" fill="#F9F3F1"/>
<path d="M50.0668 46.5996L54.2116 41.2227L49.7308 44.5833L48.8906 46.0956L50.0668 46.5996Z" fill="#F9F3F1"/>
<path d="M166.125 49.0661H168.085V48.2819L165.005 44.8093L162.484 42.9609L166.125 49.0661Z" fill="#F9F3F1"/>
<path d="M164.555 64.4126L171.22 59.2037V54.2188H167.971L164.555 64.4126Z" fill="#F9F3F1"/>
<path d="M172.509 52.9297H168.421L168.141 53.6578L172.229 53.7138L172.285 58.8668L175.422 56.4583V55.5622L172.509 52.9297Z" fill="#F9F3F1"/>
<path d="M227.681 48.2266V46.7703L223.984 44.5859V46.5463L227.681 48.2266Z" fill="#7B8174"/>
<path d="M74.8282 45.7656L67.5469 48.3421V52.3748H79.4211V47.1099L74.8282 45.7656Z" fill="#F9F3F1"/>
<path d="M67.4943 59.3174V53.1562H61.9493L58.2526 58.0852L58.1406 59.3174H67.4943Z" fill="#F9F3F1"/>
<path d="M66.4767 48.7305L64.9644 49.1786L62.5 52.0911H66.4767V48.7305Z" fill="#F9F3F1"/>
<path d="M68.4988 59.148L73.1476 58.7V53.2109H68.2188L68.4988 59.148Z" fill="#F9F3F1"/>
<path d="M73.9297 53.3789L74.3218 58.3638L79.6988 56.6835V53.3789H73.9297Z" fill="#F9F3F1"/>
<path d="M86.4213 54.3296V50.4648H80.8203V56.2339L86.4213 54.3296Z" fill="#F9F3F1"/>
<path d="M88.8846 50.3555H87.4844V54.2202L91.6291 52.6519L88.8846 50.3555Z" fill="#F9F3F1"/>
<path d="M131.907 61.2211L137.844 55.0039L130.898 57.3563V61.2211H131.907Z" fill="#F9F3F1"/>
<path d="M129.717 62.6764L130.109 57.5234L122.828 60.492L129.717 62.6764Z" fill="#F9F3F1"/>
<path d="M44.1953 71.8082H51.1966L50.5805 66.0951L44.2513 65.8711L44.1953 71.8082Z" fill="#F9F3F1"/>
<path d="M44.0797 73.207V73.9912L43.3516 80.5444L46.9922 75.3354V73.207H44.0797Z" fill="#F9F3F1"/>
<path d="M76.7344 65.2539V71.415L79.8149 70.2388L76.7344 65.2539Z" fill="#F9F3F1"/>
<path d="M257.808 92.5298L257.976 86.4807L256.632 82.3359H255.68L257.808 92.5298Z" fill="#C6C6BF"/>
<path d="M89.8432 74.272H90.2352L89.171 67.7188L87.8828 68.2229L89.8432 74.272Z" fill="#F9F3F1"/>
<path d="M84.9141 80.6576V84.0743H96.6762L94.9959 80.4336L84.9141 80.6576Z" fill="#9DA197"/>
<path d="M106.474 73.0966L108.826 72.6486V70.7442L102.945 68.8398L106.474 73.0966Z" fill="#F9F3F1"/>
<path d="M129.836 79.4224L126.195 78.0781L129.22 82.615H129.836V79.4224Z" fill="#F9F3F1"/>
<path d="M25.5892 90.5703H24.469L21.1084 95.1631L20.1562 97.7956L25.5892 90.5703Z" fill="#5A6354"/>
<path d="M12.8281 113.199L16.6928 104.293H16.0767L12.8841 110.958L12.8281 113.199Z" fill="#5A6354"/>
<path d="M202.812 71.0234L190.602 72.2557V77.5766H202.812V71.0234Z" fill="#F9F3F1"/>
<path d="M184.328 72.0312L185.28 78.8085L186.905 79.0886V72.5914L184.328 72.0312Z" fill="#F9F3F1"/>
<path d="M190.768 79.926L189.76 77.9096V72.3086L187.688 72.5326V79.3659L190.768 79.926Z" fill="#F9F3F1"/>
<path d="M191.781 79.985L200.519 81.6653V78.3047H191.781V79.985Z" fill="#F9F3F1"/>
<path d="M205.443 83.5136L207.571 78.3047H201.914V82.2254L209.531 85.698L205.443 83.5136Z" fill="#F9F3F1"/>
<path d="M210.875 85.9218L213.676 86.3138L213.339 79.1445L210.875 85.3617V85.9218Z" fill="#F8F3F0"/>
<path d="M215.188 86.2002L225.661 85.7521L224.429 80.0391H215.188V86.2002Z" fill="#F8F2F0"/>
<path d="M204.609 77.2952H207.914L210.771 71.3581L204.609 71.2461V77.2952Z" fill="#F9F3F1"/>
<path d="M215.581 73.2611L214.349 77.4059H217.149V72.757L214.125 71.3008L211.828 71.5248L215.581 73.2611Z" fill="#F9F3F1"/>
<path d="M219.331 79.3654L219.051 73.6523H217.875V79.3654H219.331Z" fill="#F9F3F1"/>
<path d="M222.696 78.585V76.1205L222.08 75.1684L220.008 74.1602V78.585H222.696Z" fill="#F9F3F1"/>
<path d="M130.391 78.3575H137L136.72 75.725L131.007 72.8125L130.391 78.3575Z" fill="#F9F3F1"/>
<path d="M136.216 91.5201V79.4219H130.727V91.5201H136.216Z" fill="#C9C8C2"/>
<path d="M130.561 92.8125L128.825 93.5966L124.008 98.8616L130.561 99.4777V92.8125Z" fill="#525C4D"/>
<path d="M133.53 100.206L143.108 105.807V96.4531H132.242L133.53 100.206Z" fill="#979B90"/>
<path d="M144.727 107.544L146.351 107.656L150.72 97.4062H144.727V107.544Z" fill="#6A7164"/>
<path d="M165.956 90.9062L153.578 91.8584L155.034 96.2272L165.956 96.5633V90.9062Z" fill="#7E8478"/>
<path d="M167.188 92.6445V98.9177L174.413 99.9259L178.502 93.9888L178.446 92.6445H176.429V95.5011L173.125 98.5816L172.957 92.6445H167.188Z" fill="#8E9388"/>
<path d="M172.786 91.5795V86.5385L170.322 85.3063L170.434 84.4102L166.961 88.4429V91.5795H172.786Z" fill="#ADAFA6"/>
<path d="M141.707 87.9934L140.475 87.2653L137.898 81.1602V87.9934H141.707Z" fill="#F3EEEB"/>
<path d="M142.711 95.1623H152.121V91.6337L148.368 92.0258L142.711 89.2812V95.1623Z" fill="#576152"/>
<path d="M131.453 92.25V95.4986H136.382V92.25H131.453Z" fill="#A4A79D"/>
<path d="M138.797 95.3318V89.0586H137.117V95.3318H138.797Z" fill="#9FA298"/>
<path d="M141.48 95.3852V89H139.352V95.3852H141.48Z" fill="#E0DDD8"/>
<path d="M101.768 85.8616L103.561 79.8125L98.0156 82.2769V85.8616H101.768Z" fill="#F9F3F1"/>
<path d="M106.198 86.9844L99.4766 87.0964L99.9807 94.4898L106.198 93.4816V86.9844Z" fill="#A7A9A1"/>
<path d="M92.0234 85.0234V88.104L96.2802 88.7761V85.0234H92.0234Z" fill="#394634"/>
<path d="M99.0241 93.0909V86.7617H97.3438V89.6182L99.0241 93.0909Z" fill="#EBE7E3"/>
<path d="M91.0172 84.9688H83.6238L83.3438 86.593L91.0172 88.1613V84.9688Z" fill="#D8D6D0"/>
<path d="M66.2631 91.298L68.4475 87.7134L66.9912 81.1602L66.0391 82.6164L66.2631 91.298Z" fill="#EEEAE6"/>
<path d="M37.7539 97.8492L43.0189 95.5527V93.8164H41.3386L34.2812 101.658L34.6173 103.898L37.7539 97.8492Z" fill="#F9F3F1"/>
<path d="M34.6689 119.415L35.229 115.718L34.1648 106.98H30.5242L28.5078 110.789V119.415H34.6689Z" fill="#F9F3F1"/>
<path d="M33.4348 123.953L34.499 120.48H26.6016L26.9936 125.577L33.4348 123.953Z" fill="#F9F3F1"/>
<path d="M26.2683 117.343H27.8366V111.574L26.1562 114.879L26.2683 117.343Z" fill="#F9F3F1"/>
<path d="M185.391 92.8633L184.047 93.3674L186.007 100.145H186.399L185.391 92.8633Z" fill="#2F3C2A"/>
<path d="M192.282 110.51L187.129 107.094L183.992 110.51H192.282Z" fill="#BEBEB7"/>
<path d="M187.75 106.476L192.343 109.445L193.351 103.676L187.75 106.476Z" fill="#F7F2EF"/>
<path d="M195.305 94.6602L196.817 96.2285L203.762 98.5809V97.5727L195.305 94.6602Z" fill="#747C6F"/>
<path d="M238.039 95.332L239.327 101.381H243.416L244.144 95.332H238.039Z" fill="#F8F3F0"/>
<path d="M241.735 108.773L243.415 102.5H236.414L241.735 108.773Z" fill="#F9F3F1"/>
<path d="M257.699 108.94L257.755 106.531H256.411L254.562 115.829L257.699 108.94Z" fill="#9C9F96"/>
<path d="M92.8125 100.258L96.4532 105.299L98.5256 105.803L97.6294 101.042L92.8125 100.258Z" fill="#6C7466"/>
<path d="M88.9453 107.43V112.583L92.754 112.247V111.182L88.9453 107.43Z" fill="#A5A89F"/>
<path d="M95.4356 112.135L99.0203 117.176V107.094H95.8837L93.5312 111.239V112.303L95.4356 112.135Z" fill="#C4C3BD"/>
<path d="M103.841 110.791L103.001 109.951L105.69 104.35L99.6406 104.238L100.145 110.343L103.841 110.791Z" fill="#8C9186"/>
<path d="M108.161 111.576L108.273 105.695L104.969 111.184L108.161 111.576Z" fill="#687063"/>
<path d="M127.477 119.584H128.709V114.263L127.589 114.207L127.477 119.584Z" fill="#F9F3F1"/>
<path d="M130.444 113.87L129.156 113.758V119.695H131.509V114.878L130.444 113.87Z" fill="#F9F3F1"/>
<path d="M177.891 112.58L180.467 112.524L177.891 108.043V112.58Z" fill="#E1DED9"/>
<path d="M185.505 111.464L187.242 112.584L190.266 112.528V111.184H183.265L181.977 112.696L184.665 112.64L185.505 111.464Z" fill="#CCCBC5"/>
<path d="M204.214 111.574L204.326 105.973L200.461 111.574H204.214Z" fill="#656D5F"/>
<path d="M191.445 111.516V115.044L191.837 115.268L193.462 113.7V111.516H191.445Z" fill="#F9F3F1"/>
<path d="M51.6381 112.468H54.7747V106.531L48.3896 108.772L47.7734 109.388L51.6381 112.468Z" fill="#A0A299"/>
<path d="M134.756 120.256V118.015L132.18 115.383V120.256H134.756Z" fill="#F4EFEC"/>
<path d="M137.39 123.391L139.91 123.111L135.766 118.574V120.983L137.39 123.391Z" fill="#9DA197"/>
<path d="M152.68 129.499H158.841L158.897 126.642L159.849 125.858L153.856 125.242L152.68 129.499Z" fill="#F9F3F1"/>
<path d="M153.016 130.619L158.617 133.923L158.673 130.562L153.016 130.619Z" fill="#F9F3F1"/>
<path d="M180.407 127.367L179.734 133.641H186.12V126.695L180.407 127.367Z" fill="#F9F3F1"/>
<path d="M180.18 135.039L183.932 138.68L183.316 139.744L185.781 138.008V134.703L180.18 135.039Z" fill="#F9F3F1"/>
<path d="M189.647 135.882V133.586H187.07V137.619L189.647 135.882Z" fill="#F9F3F1"/>
<path d="M187.578 129.723H197.996V125.802L193.011 122.777L187.578 127.65V129.723Z" fill="#F9F3F1"/>
<path d="M200.516 132.744H211.998V127.199H201.468L200.516 132.744Z" fill="#F9F3F1"/>
<path d="M225.723 127.763L213.625 127.371V133.196H215.193L225.723 128.379V127.763Z" fill="#F9F3F1"/>
<path d="M193.854 133.362L198.615 133.25V130.449H190.438V135.322L193.854 133.362Z" fill="#F9F3F1"/>
<path d="M187.016 130.449V132.914H189.48V130.449H187.016Z" fill="#F9F3F1"/>
<path d="M90.5703 126.024L102.837 126.416V125.24L99.924 124.68L90.5703 126.024Z" fill="#F9F3F1"/>
<path d="M118.344 127.258L118.512 133.307L123.497 129.274L123.385 127.426L118.344 127.258Z" fill="#F9F3F1"/>
<path d="M241.625 135.044L246.61 129.387L240.617 133.7V135.044H241.625Z" fill="#ADAFA6"/>
<path d="M230.031 140.923V142.603L235.128 141.315V138.066L230.031 140.923Z" fill="#CECDC6"/>
<path d="M238.375 140.475L241.119 135.882L240.111 135.77L240.055 134.426L236.078 137.562V141.091L238.375 140.475Z" fill="#969A90"/>
<path d="M221.969 145.629V147.645L224.377 147.981L227.01 143.78V142.828L221.969 145.629Z" fill="#A7A9A0"/>
<path d="M210.43 146.748L220.512 147.14L220.4 146.02L210.43 146.748Z" fill="#EEE9E6"/>
<path d="M189.203 151.789V154.366H192.34V152.069L189.203 151.789Z" fill="#C8C7C1"/>
<path d="M195.585 154.196L193.457 149.884L196.258 148.876V147.531L193.289 149.324V154.196H195.585Z" fill="#7B8175"/>
<path d="M186.344 157.166H189.088L188.584 151.789L186.344 151.621V157.166Z" fill="#E8E5E0"/>
<path d="M177.945 162.374V165.007L181.866 161.926V160.582L177.945 162.374Z" fill="#ACAEA5"/>
<path d="M171.055 165.622L175.928 166.574L177.44 165.454V162.766L171.055 165.622Z" fill="#C8C8C1"/>
<path d="M154.195 166.406L161.477 168.367L163.717 167.638V167.078L154.195 166.406Z" fill="#BEBEB7"/>
<path d="M18.7085 143.334L16.132 136.781H14.8438L17.8123 143.222L18.7085 143.334Z" fill="#5B6455"/>
<path d="M82.6718 146.524H83.5119V140.363H79.3672L82.6718 146.524Z" fill="#F9F3F1"/>
<path d="M84.7969 140.473V146.41H92.9744L92.4703 140.473H84.7969Z" fill="#F9F3F1"/>
<path d="M87.8194 153.692H88.4355L85.579 147.195H83.2266L87.8194 153.692Z" fill="#F9F3F1"/>
<path d="M100.094 142.379V146.468L100.99 148.092L101.83 142.379H100.094Z" fill="#F9F3F1"/>
<path d="M113.086 147.641L120.535 147.697V143.665L118.911 142.376L116.279 141.984L113.086 147.641Z" fill="#F9F3F1"/>
<path d="M125.515 147.194L121.538 144.113L121.482 147.978L120.586 148.146V152.403L125.515 147.194Z" fill="#F9F3F1"/>
<path d="M114.934 157.222L109.109 154.59L111.07 160.639L114.486 159.519L114.934 157.222Z" fill="#F9F3F1"/>
<path d="M180.068 146.918L181.244 142.438L176.539 148.151L180.068 146.918Z" fill="#F9F3F1"/>
<path d="M58.7555 162.039L57.8594 167.64H59.0916L62.8443 165.792L62.0041 162.711L58.7555 162.039Z" fill="#4B5646"/>
<path d="M149.207 166.238L142.766 166.966L141.086 168.927L149.207 166.238Z" fill="#6E7668"/>
<path d="M68.7266 176.27L75.6158 183.551L79.0325 184.839L74.8877 181.366L74.1596 181.815L71.6951 178.734L68.7266 176.27Z" fill="#6A7265"/>
<path d="M79.4272 177.273L75.5625 180.914L78.363 183.267L79.4272 177.273Z" fill="#D1CFC9"/>
<path d="M137.726 172.961L135.597 175.817L135.821 176.602L134.925 176.658L133.133 179.066H136.213L137.726 172.961Z" fill="#CECDC6"/>
<path d="M135.378 179.625H128.769L128.713 183.882L124.344 185.618V187.018L130.505 184.778L135.098 180.969L135.378 179.625Z" fill="#8D9186"/>
<path d="M118.125 187.633V188.922L122.942 187.185V185.953L118.125 187.633Z" fill="#B0B2A9"/>
<path d="M117.507 189.26V187.859L112.914 189.484V190.884L117.507 189.26Z" fill="#C3C3BB"/>
<path d="M100.196 191.391L100.477 190.327L93.5312 189.543V190.663L100.196 191.391Z" fill="#BABBB3"/>
</svg>
