<svg width="344" height="333" viewBox="0 0 344 333" fill="none" xmlns="http://www.w3.org/2000/svg">
<path d="M76.0031 23.9023L81.5031 20.3024L74.4031 1.40234L57.2031 12.4023L76.0031 23.9023Z" fill="#0C1C08"/>
<path d="M74.9031 26.6008L57.1031 15.3008L49.6031 31.8008L48.2031 38.2008L68.0031 44.2008L74.9031 26.6008Z" fill="#0E1E0A"/>
<path d="M68.1 47.7016L47.4 41.1016L43 65.0016L63.5 75.2016L68.1 47.7016Z" fill="#0A1B06"/>
<path d="M34.5 93.5023L56.1 101.102L63.3 77.6024L42.8 67.9023L34.5 93.5023Z" fill="#0D1E09"/>
<path d="M34.6031 95.6016L23.2031 122.102L42.7031 130.902L54.3031 103.802L34.6031 95.6016Z" fill="#13230F"/>
<path d="M7.5 143.803L22.7 158.703L41.8 132.603L21.4 124.203L7.5 143.803Z" fill="#1F2E1B"/>
<path d="M21.7016 159.902L6.40158 145.602L0.101562 158.302L21.3016 161.602L21.7016 159.902Z" fill="#081904"/>
<path d="M21.2 163.802L0 160.402L1.5 173.502L3.70001 177.802L21.8 168.202L21.2 163.802Z" fill="#091A05"/>
<path d="M6.80002 184.102L23.2 202.802L44 194.502L22.7 169.102L4.5 179.302L6.80002 184.102Z" fill="#263421"/>
<path d="M25.7031 203.701L33.7031 223.501L53.2031 217.901L44.4031 195.301L25.7031 203.701Z" fill="#182713"/>
<path d="M33.7031 225.002L39.5031 243.102L60.4031 236.502L55.2031 219.902L33.7031 225.002Z" fill="#12220E"/>
<path d="M41.2031 246.3L46.7031 268.2L66.7031 265.3L60.4031 240L41.2031 246.3Z" fill="#12220D"/>
<path d="M46.3047 271.403L50.2047 293.003L71.9047 287.803L68.4047 268.203L46.3047 271.403Z" fill="#13220E"/>
<path d="M50.5 295.702L62.8 322.702L77.2 307.902L72.3 291.102L50.5 295.702Z" fill="#0F1F0B"/>
<path d="M63.6016 324.702L80.8016 330.502L82.7016 310.702L78.2016 309.902L63.6016 324.702Z" fill="#071803"/>
<path d="M81.8047 331.702L108.705 331.602V308.602L83.7047 309.602L81.8047 331.702Z" fill="#0A1B06"/>
<path d="M128.203 330.401V309.801H110.203V330.401H128.203Z" fill="#081904"/>
<path d="M155.703 331.2V310.8L130.703 310V330.4L155.703 331.2Z" fill="#081904"/>
<path d="M181.703 332.602V309.602H158.703V332.602H181.703Z" fill="#081904"/>
<path d="M205.703 332.7V309.5H183.703V332.7H205.703Z" fill="#081904"/>
<path d="M225.506 331.1V311H206.906V331.2L225.506 331.1Z" fill="#071803"/>
<path d="M226.906 331.403L250.506 330.603V309.703L226.906 310.603V331.403Z" fill="#081904"/>
<path d="M277.006 331.602V308.602H253.406V331.602H277.006Z" fill="#0A1B06"/>
<path d="M300.006 331.302V308.902H280.406V331.302H300.006Z" fill="#0A1B06"/>
<path d="M328.802 327.203L317.002 309.303L303.102 309.203V331.003L328.802 327.203Z" fill="#081904"/>
<path d="M319 309.902L330.9 326.302L338.2 316.002L319 309.902Z" fill="#071803"/>
<path d="M338.706 314.703L340.206 310.003L343.006 290.203L322.906 297.303L319.406 307.903L338.706 314.703Z" fill="#13230F"/>
<path d="M318.906 276.502L322.806 294.802L343.106 288.402L339.906 273.102L318.906 276.502Z" fill="#13230F"/>
<path d="M313.203 251.603L318.003 274.403L340.103 270.703L335.503 249.703L313.203 251.603Z" fill="#1D2C19"/>
<path d="M309.906 231.502L313.706 249.902L334.106 248.102L329.306 224.602L309.906 231.502Z" fill="#1A2916"/>
<path d="M301.305 206.702L308.705 229.602L328.805 222.702L322.005 201.602L301.305 206.702Z" fill="#243220"/>
<path d="M293.805 186.9L300.305 203.9L321.405 199.1L313.405 178L293.805 186.9Z" fill="#1F2D1A"/>
<path d="M293.006 184L312.506 175.5L307.206 167.4L285.906 164.5L293.006 184Z" fill="#243320"/>
<path d="M306.802 165.402L313.902 148.902L296.502 137.902L287.102 162.002L306.802 165.402Z" fill="#21301D"/>
<path d="M315.9 146.502L324.7 120.702L304.6 114.902L297.5 136.602L315.9 146.502Z" fill="#1A2915"/>
<path d="M326.206 117.302L332.706 97.1024L310.906 92.4023L304.406 111.602L326.206 117.302Z" fill="#1D2C19"/>
<path d="M332.702 93.2008L336.702 70.7008L315.402 65.8008L311.602 88.6008L332.702 93.2008Z" fill="#1B2A16"/>
<path d="M336.305 67.6016L340.005 41.8016L321.005 36.6016L316.805 62.3016L336.305 67.6016Z" fill="#1C2B18"/>
<path d="M340.506 39.5016L338.706 18.6016L319.906 27.4016L321.006 34.4016L340.506 39.5016Z" fill="#172613"/>
<path d="M328.003 4.60156L318.203 24.3016L319.503 26.2016L338.003 17.1016L328.003 4.60156Z" fill="#0D1D09"/>
<path d="M316.205 23.5008L327.205 4.30078L299.805 0.300781L301.705 22.1008L316.205 23.5008Z" fill="#172713"/>
<path d="M275.305 2.50076V23.4008L299.105 21.6008L297.405 0.800781L275.305 2.50076Z" fill="#1B2A17"/>
<path d="M272.506 1.70312H252.906V24.5031H272.506V1.70312Z" fill="#21301D"/>
<path d="M250.506 3.10156H227.906V23.1016H250.506V3.10156Z" fill="#1D2C19"/>
<path d="M224.506 1.70312H201.906V24.5031H224.506V1.70312Z" fill="#21301D"/>
<path d="M198.203 1.90234H178.203V24.3024H198.203V1.90234Z" fill="#21301D"/>
<path d="M175.105 1.60156H153.305V24.6016H175.105V1.60156Z" fill="#21301D"/>
<path d="M151.302 2.40234H127.102V23.8024H151.302V2.40234Z" fill="#1D2C19"/>
<path d="M98.7031 22.1031L125.003 24.6031V1.60312L105.603 0.203125L98.7031 22.1031Z" fill="#202F1C"/>
<path d="M83.0062 20.3L96.6062 20.9L103.406 1.10001L77.9062 0L83.0062 20.3Z" fill="#0F1F0B"/>
<path d="M75.1 36.1016L69.5 58.2016H91.4L96.7 39.4016L75.1 36.1016Z" fill="#D9D7D2"/>
<path d="M67.7031 74.2016L87.1031 84.0016L91.1031 61.6016H69.1031L67.7031 74.2016Z" fill="#E9E5E2"/>
<path d="M59.4062 102.002L79.8062 108.602L86.3062 86.5023L67.2062 76.9023L59.4062 102.002Z" fill="#D7D5D0"/>
<path d="M50.8047 120.1L69.9047 133.2L80.1047 111.2L58.0047 104L50.8047 120.1Z" fill="#D9D7D2"/>
<path d="M39.6016 144.002L56.5016 156.802L67.8016 134.202L50.9016 121.402L39.6016 144.002Z" fill="#D2D0CB"/>
<path d="M26.6016 162.201L48.6016 164.601L55.7016 157.701L37.6016 146.301L26.6016 162.201Z" fill="#CDCCC6"/>
<path d="M35.0016 180.702L47.9016 167.002L41.0016 166.102L28.6016 173.102L35.0016 180.702Z" fill="#C9C8C2"/>
<path d="M47.6016 193.003L66.6016 187.403L51.4016 167.203L38.1016 181.603L47.6016 193.003Z" fill="#EAE6E2"/>
<path d="M47.4062 196.702L57.8062 218.902L80.1062 213.802L69.5062 190.902L47.4062 196.702Z" fill="#DAD7D2"/>
<path d="M58.6016 222.501L66.2016 245.201L87.7016 239.401L80.3016 217.301L58.6016 222.501Z" fill="#DCD9D4"/>
<path d="M68.2031 248.102L72.2031 271.902L91.4031 266.502L87.1031 241.902L68.2031 248.102Z" fill="#E7E3E0"/>
<path d="M71.7031 273.5L75.3031 292.1L96.7031 286.9L93.0031 268L71.7031 273.5Z" fill="#E5E1DD"/>
<path d="M75.4062 293.101L76.1062 296.701L98.1062 292.801L97.1062 287.801L75.4062 293.101Z" fill="#F3EEEB"/>
<path d="M112.702 285L98.6016 288L102.602 307.2H112.702V285Z" fill="#DCD9D4"/>
<path d="M89.4047 295.703L87.8047 306.903L100.505 307.003L98.0047 294.203L89.4047 295.703Z" fill="#D0CEC8"/>
<path d="M133.303 306.901L135.203 285.301H114.203V306.901H133.303Z" fill="#E1DEDA"/>
<path d="M157.703 308.001V286.101L137.503 285.301L135.703 307.001L157.703 308.001Z" fill="#DCD9D4"/>
<path d="M183.006 308.503V285.703H160.406V308.503H183.006Z" fill="#D6D4CE"/>
<path d="M202.802 307.7V286.5H185.602V307.7H202.802Z" fill="#DBD8D3"/>
<path d="M228.105 307V287H206.305V307.2L228.105 307Z" fill="#DBD8D3"/>
<path d="M231.102 307.702L252.002 306.902L248.702 285.402L231.102 286.202V307.702Z" fill="#DCD9D4"/>
<path d="M251.306 294.202L262.106 298.602L254.306 284.902L249.906 285.002L251.306 294.202Z" fill="#F9F3F1"/>
<path d="M253.305 278.9L263.405 299.3L277.505 299.7V276.5L253.305 278.9Z" fill="#F8F3F0"/>
<path d="M280.906 298.302L285.706 298.202L297.106 281.402L280.906 277.902V298.302Z" fill="#F9F3F1"/>
<path d="M286.805 299.5L305.005 306.8V284.8L298.905 281.5L286.805 299.5Z" fill="#E5E1DD"/>
<path d="M318.402 293.201L312.302 268.301L307.102 270.001V293.201H318.402Z" fill="#DDDAD6"/>
<path d="M291.805 274.202L304.505 282.502V269.902L291.805 274.202Z" fill="#F9F3F1"/>
<path d="M287.305 250.203L290.205 271.503L312.105 265.003L309.205 243.703L287.305 250.203Z" fill="#F6F0EE"/>
<path d="M282.406 227.901L287.406 247.401L308.606 240.601L304.406 224.801L282.406 227.901Z" fill="#EFEAE7"/>
<path d="M276.906 210.303L282.606 224.303L302.606 221.503L294.906 201.203L276.906 210.303Z" fill="#ECE8E4"/>
<path d="M265.805 186.602L275.105 208.402L294.405 198.102L285.605 177.402L265.805 186.602Z" fill="#EEE9E6"/>
<path d="M283.9 175.6L282.3 161.9L262.5 161.5L265.8 184.3L283.9 175.6Z" fill="#F3EEEB"/>
<path d="M263.102 157.703L283.002 158.103L291.502 137.503L273.002 130.203L263.102 157.703Z" fill="#EBE7E4"/>
<path d="M274.305 126.602L293.405 134.002L301.405 109.902L281.705 104.102L274.305 126.602Z" fill="#EAE6E2"/>
<path d="M282.102 100.8L302.902 106.7L308.202 89.7L287.602 83L282.102 100.8Z" fill="#F0EBE8"/>
<path d="M287.906 80.2L308.806 86.7L311.506 65L290.606 58.5L287.906 80.2Z" fill="#F5EFED"/>
<path d="M291 55.9L311.9 62.9L317 41H295L291 55.9Z" fill="#EFEBE8"/>
<path d="M294.602 39.6016H317.802V36.6016H294.602V39.6016Z" fill="#F6F1EE"/>
<path d="M304.8 35.5023L302.7 23.9023L297 24.3024L295 35.5023H304.8Z" fill="#E2DFDB"/>
<path d="M280.5 25.9031V48.2031L291 47.3031L294.8 24.7031L280.5 25.9031Z" fill="#F2EDEA"/>
<path d="M278.802 27.1016H257.602V47.1016H278.802V27.1016Z" fill="#F7F2EF"/>
<path d="M255.203 26.2031H235.203V48.0031H255.203V26.2031Z" fill="#F7F1EF"/>
<path d="M231.105 25.8008H209.305V48.4008H231.105V25.8008Z" fill="#F5F0ED"/>
<path d="M206.506 26.5H185.906V47.7H206.506V26.5Z" fill="#F7F1EF"/>
<path d="M184.302 26.5H164.102V47.7H184.302V26.5Z" fill="#F7F2EF"/>
<path d="M162.302 25.9023H138.102V48.3024H162.302V25.9023Z" fill="#F5EFED"/>
<path d="M112.602 48.4031L135.902 48.5031V25.7031L116.102 25.8031L112.602 48.4031Z" fill="#F5F0ED"/>
<path d="M110.5 47.7031L113.9 26.4031L99.5 25.2031V46.7031L110.5 47.7031Z" fill="#F5EFED"/>
<path d="M90.8 24.4023L89 35.5023L96.8 36.8024V24.9023L90.8 24.4023Z" fill="#EBE6E3"/>
<path d="M120.502 60.5L101.602 73.2L118.502 85.3L127.002 80.5L120.502 60.5Z" fill="#F5F0ED"/>
<path d="M93.2031 96.8016L113.703 103.102L117.603 87.5016L100.003 76.1016L93.2031 96.8016Z" fill="#F8F3F0"/>
<path d="M85.8047 120.701L107.205 124.101L113.205 106.801L92.5047 100.301L85.8047 120.701Z" fill="#F7F1EF"/>
<path d="M76.6016 144.803L95.2016 155.203L106.002 127.203L85.2016 123.703L76.6016 144.803Z" fill="#ECE7E4"/>
<path d="M73 169.903L93.5 166.603L94.1 157.303L75.9 147.703L73 169.903Z" fill="#F7F1EF"/>
<path d="M73.6016 172.901L83.6016 200.701L103.402 193.701L94.1016 169.301L73.6016 172.901Z" fill="#F0EBE9"/>
<path d="M85 202.402L91.7 220.402L111.5 214.202L104.6 195.402L85 202.402Z" fill="#F3EEEB"/>
<path d="M92.8047 222.801L103.705 251.801L119.105 237.701L112.605 216.801L92.8047 222.801Z" fill="#F5EFED"/>
<path d="M104 254L126.8 267L130.6 244.7L121.2 239L104 254Z" fill="#E9E5E1"/>
<path d="M132.306 246.302L128.906 265.902L149.606 266.102V246.102L132.306 246.302Z" fill="#EDE9E5"/>
<path d="M152.602 266.602H174.802V245.602H152.602V266.602Z" fill="#EAE6E2"/>
<path d="M178.102 266.102H195.302V246.102H178.102V266.102Z" fill="#EAE6E2"/>
<path d="M197.602 267.3L217.802 268.2V245.9L197.602 245V267.3Z" fill="#E7E4E0"/>
<path d="M219 267.102L250.2 265.402L240.9 247.102H219V267.102Z" fill="#EEEAE6"/>
<path d="M243.203 245.802L251.603 265.802L263.703 254.902L245.703 244.402L243.203 245.802Z" fill="#F1ECE9"/>
<path d="M251.906 236.503L247.406 243.303L264.606 254.203L271.306 232.703L251.906 236.503Z" fill="#E3E0DC"/>
<path d="M245.5 215.2L251.8 235.1L271.3 231.5L264.3 208.5L245.5 215.2Z" fill="#E9E5E2"/>
<path d="M235 192.5L243.8 213.4L262.9 206.8L253.3 183.5L235 192.5Z" fill="#E2DEDA"/>
<path d="M214.305 168.402L232.405 191.002L250.305 181.802L233.505 163.402L214.305 168.402Z" fill="#C8C7C1"/>
<path d="M224.002 164.1L238.502 160.4L247.502 147.1L230.602 134L215.102 156.7L224.002 164.1Z" fill="#C3C2BB"/>
<path d="M232.602 133.101L249.602 146.201L261.602 119.401L241.402 113.801L232.602 133.101Z" fill="#DDDAD5"/>
<path d="M242.906 112.602L262.706 118.002L269.806 89.1016H249.506L242.906 112.602Z" fill="#D6D4CE"/>
<path d="M249.405 85.1L249.305 87.6H271.005L267.305 72L249.405 85.1Z" fill="#EFEBE7"/>
<path d="M247 80.9031L249.3 82.7031L266.2 71.4031L253.6 62.2031L247 80.9031Z" fill="#F5F0ED"/>
<path d="M222.906 81.3024L245.006 81.7024L252.206 60.4023L222.906 58.9023V81.3024Z" fill="#F0ECE8"/>
<path d="M194.703 81.3024H221.703V58.9023H194.703V81.3024Z" fill="#F0EBE8"/>
<path d="M174 81.2H192.4V59H174V81.2Z" fill="#F0EBE8"/>
<path d="M153.805 80.8024H170.605V59.4023H153.805V80.8024Z" fill="#F3EEEB"/>
<path d="M130.906 80.4008H151.506V59.8008H130.906V80.4008Z" fill="#F3EEEB"/>
<path d="M123.805 58.9016L129.405 81.4016L129.805 81.5016V58.6016L123.805 58.9016Z" fill="#F4EFEC"/>
<path d="M120 96.6016L121 107.102L137.7 121.802L142.3 97.5016L120 96.6016Z" fill="#10200C"/>
<path d="M109.203 131.7L130.003 137.7L136.703 123.2L120.503 109L109.203 131.7Z" fill="#2A3826"/>
<path d="M101.805 152.602L119.905 162.202L128.505 141.002L108.705 135.402L101.805 152.602Z" fill="#1E2D1A"/>
<path d="M97.1016 160.502L119.702 165.102L120.002 164.902L99.9016 153.902L97.1016 160.502Z" fill="#1B2A16"/>
<path d="M101.905 176L121.605 167.5L119.105 165.9L97.8047 161.5L101.905 176Z" fill="#1C2B18"/>
<path d="M103.203 177.101L113.203 203.801L131.803 193.201L122.503 168.301L103.203 177.101Z" fill="#2A3826"/>
<path d="M114.5 205.402L120.3 225.202H141.3L133 195.602L114.5 205.402Z" fill="#1A2916"/>
<path d="M122.005 233L139.705 227.5H120.805L122.005 233Z" fill="#1B2A17"/>
<path d="M142 221.801L148.3 241.501L157.7 242.001V222.101L142 221.801Z" fill="#081904"/>
<path d="M134.2 230.702L131 241.502L146.4 242.302L142.4 228.402L134.2 230.702Z" fill="#0B1C07"/>
<path d="M178.605 243.102V221.102H159.805V243.102H178.605Z" fill="#0A1B06"/>
<path d="M204.1 244.1L207.1 221.6L182 220.5V243.7L204.1 244.1Z" fill="#0D1D09"/>
<path d="M207.406 242.503L233.406 243.003V223.203L210.406 223.303L207.406 242.503Z" fill="#0A1B06"/>
<path d="M236.102 226.103V232.403L247.102 232.603L244.202 222.203L236.102 226.103Z" fill="#202E1C"/>
<path d="M219.406 220.002L242.506 220.202L231.506 195.402L212.406 204.402L219.406 220.002Z" fill="#24321F"/>
<path d="M192.906 186.202L210.406 202.402L230.606 193.602L211.006 173.902L192.906 186.202Z" fill="#1B2B17"/>
<path d="M192.105 183.9L209.505 172.2L207.005 163.7L185.805 162L192.105 183.9Z" fill="#0B1C07"/>
<path d="M184.805 158.901L207.805 160.501L208.105 158.901L190.005 146.301L184.805 158.901Z" fill="#071804"/>
<path d="M191.406 144.402L208.506 157.602L225.406 138.002L205.606 128.902L191.406 144.402Z" fill="#1A2A16"/>
<path d="M206.406 126.503L226.706 136.003L237.006 116.703L216.706 107.203L206.406 126.503Z" fill="#12220E"/>
<path d="M222.003 97.6008L217.703 105.701L237.403 114.201L243.803 96.3008L222.003 97.6008Z" fill="#10200C"/>
<path d="M208.102 104.003L216.002 103.803L225.402 84.4031L208.102 84.2031V104.003Z" fill="#091A05"/>
<path d="M231.802 94.1024V83.4023H228.202L222.102 94.6024L231.802 94.1024Z" fill="#11210D"/>
<path d="M204.302 84.1016H183.102V104.102H204.302V84.1016Z" fill="#0C1D08"/>
<path d="M180.4 83.5H155V104.7H180.4V83.5Z" fill="#0C1D08"/>
<path d="M136 94.8L152.4 95.5V83.5H136V94.8Z" fill="#10200C"/>
<path d="M142.703 105.203H152.903V98.1031L144.103 97.7031L142.703 105.203Z" fill="#071803"/>
<path d="M143.6 116L132.5 140.7L151.8 148.2L163 123.5L143.6 116Z" fill="#071803"/>
<path d="M146.303 161.901L151.003 149.701L130.803 142.801L124.703 163.301L146.303 161.901Z" fill="#071803"/>
<path d="M124.203 166.802L134.103 191.202L154.003 182.002L146.703 165.402L124.203 166.802Z" fill="#071803"/>
<path d="M135.203 194L144.103 213.7L159.203 198.5L154.103 184.5L135.203 194Z" fill="#071803"/>
<path d="M171.605 218.402V197.902L161.105 200.002L154.805 206.502V218.302L171.605 218.402Z" fill="#071803"/>
<path d="M192.302 219.7V196.5H175.102V219.7H192.302Z" fill="#071803"/>
<path d="M194.703 219.503H195.703V196.703H194.703V219.503Z" fill="#071803"/>
<path d="M157.805 107.703V119.103L180.505 127.003L179.705 107.703H157.805Z" fill="#071803"/>
<path d="M163.5 129.303H180.9L166.2 124.203L163.5 129.303Z" fill="#071803"/>
<path d="M193.703 129.2V107H182.703V129.2H193.703Z" fill="#071803"/>
<path d="M203.806 126.603L195.006 120.203V130.203L191.406 130.503V143.303L203.806 126.603Z" fill="#071803"/>
<path d="M173.502 130.602L165.602 142.002L185.402 151.402L188.502 144.902V130.602H173.502Z" fill="#071803"/>
<path d="M182.306 167.8L182.506 159.8L184.106 153.2L165.706 145L162.406 171.6L182.306 167.8Z" fill="#071803"/>
<path d="M191.602 187.402L183.302 171.902L162.102 175.702L171.902 194.102H183.602L191.602 187.402Z" fill="#071803"/>
<path d="M201.8 197.5L197 193V202.1L201.8 197.5Z" fill="#071803"/>
<path d="M192.806 189.102L185.906 195.302H194.906V191.202L192.806 189.102Z" fill="#071803"/>
<path d="M74.2031 33.2H87.6031L88.9031 26L76.7031 26.7L74.2031 33.2Z" fill="#D7D5CF"/>
<path d="M67.5 55.4008H68.5L73.6 35.8008L69 46.8008L67.5 55.4008Z" fill="#505B4B"/>
<path d="M65.9031 74.9031L67.9031 58.7031H67.2031L63.2031 79.5031H64.3031L65.9031 74.9031Z" fill="#303D2B"/>
<path d="M29.4062 152.401H32.0062L43.0062 132.301L29.4062 152.401Z" fill="#414C3C"/>
<path d="M36.9 166.001L23.5 164.301L24 168.201L28.1 172.201L36.9 166.001Z" fill="#B3B5AD"/>
<path d="M23.2031 162.302L25.4031 162.502L30.6031 154.102H28.1031L23.2031 162.302Z" fill="#616A5B"/>
<path d="M304.305 24.3008L306.005 35.1008H316.405L315.705 25.5008L304.305 24.3008Z" fill="#E9E5E2"/>
<path d="M93 59.3H107.5V49.4L96 48.5L93 59.3Z" fill="#F9F3F1"/>
<path d="M92.5016 61L88.6016 83.2H95.8016L98.7016 73.7V61H92.5016Z" fill="#F9F3F1"/>
<path d="M82.4062 106.001H88.5062L95.1062 86.3008L88.2062 87.5008L82.4062 106.001Z" fill="#F9F3F1"/>
<path d="M87.7047 108.5H81.9047L75.8047 131.7H80.1047L87.7047 108.5Z" fill="#F9F3F1"/>
<path d="M70.0016 135.302L59.6016 154.502H72.2016L74.7016 134.102L70.0016 135.302Z" fill="#F9F3F1"/>
<path d="M57.4047 159.801L52.3047 164.901L62.9047 178.001H66.1047V158.301L57.4047 159.801Z" fill="#F9F3F1"/>
<path d="M79.5 202.402L71.5 192.102L76.4 203.402L79.5 202.402Z" fill="#F9F3F1"/>
<path d="M81.7031 201.102L74.1031 181.102H64.7031L80.2031 201.602L81.7031 201.102Z" fill="#F9F3F1"/>
<path d="M92.4031 227.202L83.0031 204.902H77.2031L86.7031 227.302L92.4031 227.202Z" fill="#F9F3F1"/>
<path d="M91.8031 251.7H100.003V248.8L93.2031 228.5H90.2031V241.7L91.8031 251.7Z" fill="#F9F3F1"/>
<path d="M92.2031 253.703L96.2031 274.503H105.003V256.803L102.503 255.303L101.803 253.703H92.2031Z" fill="#F9F3F1"/>
<path d="M99.7031 283.401L111.903 283.301L113.403 273.301L99.7031 283.401Z" fill="#F9F3F1"/>
<path d="M117.203 273.102V283.102L137.203 283.202V273.102H117.203Z" fill="#F9F3F1"/>
<path d="M140 272.703V283.803L162.4 284.503V272.703H140Z" fill="#F9F3F1"/>
<path d="M165.305 273.102V284.102H185.105V273.102H165.305Z" fill="#F9F3F1"/>
<path d="M187.906 272.703V284.503H210.506V272.703H187.906Z" fill="#F9F3F1"/>
<path d="M213.102 272.801V284.401L233.302 284.201V272.801H213.102Z" fill="#F9F3F1"/>
<path d="M245.905 283.902L257.605 270.602H235.805V284.402L245.905 283.902Z" fill="#F9F3F1"/>
<path d="M278.602 275.402L281.102 275.902V264.902H259.602L261.602 276.902L278.602 275.402Z" fill="#F9F3F1"/>
<path d="M278.406 260.102V264.002L282.806 264.302V275.902L289.506 277.402L285.306 260.102H278.406Z" fill="#F9F3F1"/>
<path d="M283.005 237.102H273.805V257.102H287.405L286.305 248.702L283.005 237.102Z" fill="#F9F3F1"/>
<path d="M282.303 234.503L275.303 211.703H275.203V234.503H282.303Z" fill="#F9F3F1"/>
<path d="M267.906 212.602L273.306 228.202V212.602H267.906Z" fill="#F9F3F1"/>
<path d="M267.405 210.502L273.905 209.302L264.505 187.602H257.805L267.405 210.502Z" fill="#F9F3F1"/>
<path d="M263.203 184.202L260.103 165.102H251.203V177.402L259.103 184.702L263.203 184.202Z" fill="#F9F3F1"/>
<path d="M250.906 146.803V162.503H259.706L256.406 139.703H254.306L250.906 146.803Z" fill="#F9F3F1"/>
<path d="M267.203 140.801H257.703L260.503 156.901L267.203 140.801Z" fill="#F9F3F1"/>
<path d="M259.703 128.502V138.202H263.203V121.402L259.703 128.502Z" fill="#F9F3F1"/>
<path d="M267.905 137.401L274.905 116.801H265.905L265.305 137.401H267.905Z" fill="#F9F3F1"/>
<path d="M271.806 93L267.906 106.2V113.2H276.006L283.106 93H271.806Z" fill="#F9F3F1"/>
<path d="M287.503 68H275.203V90.2H283.403L286.003 81.1L287.503 68Z" fill="#F9F3F1"/>
<path d="M278.102 66.2031H287.602L289.602 49.2031L278.102 50.0031V66.2031Z" fill="#F9F3F1"/>
<path d="M261.602 50.4023V60.8024H275.802V50.4023H261.602Z" fill="#F9F3F1"/>
<path d="M259.802 49.7031H236.602V58.1031L259.802 59.2031V49.7031Z" fill="#F9F3F1"/>
<path d="M234.302 49.8008H214.102V57.2008H234.302V49.8008Z" fill="#F9F3F1"/>
<path d="M189.305 57.2H211.105V50H189.305V57.2Z" fill="#F9F3F1"/>
<path d="M164.805 57.3024H187.605V49.9023H164.805V57.3024Z" fill="#F9F3F1"/>
<path d="M141.5 57.4008H162.9V49.8008H141.5V57.4008Z" fill="#F9F3F1"/>
<path d="M122.305 57.9008L139.505 57.4008V49.9008L122.305 49.8008V57.9008Z" fill="#F9F3F1"/>
<path d="M116.602 49.5V60.4L120.802 58.5V49.5H116.602Z" fill="#F9F3F1"/>
<path d="M108.7 59.4008L107.5 59.9008H115V50.4008L108.7 50.3008V59.4008Z" fill="#F9F3F1"/>
<path d="M112.703 61.6016H102.703V65.6016H110.003L112.703 63.9016V61.6016Z" fill="#F9F3F1"/>
<path d="M262.906 66.7H270.106V62.5H257.906L262.906 66.7Z" fill="#F9F3F1"/>
<path d="M273.4 86.4008V65.8008H271.5L271.3 68.4008L264.5 68.8008L268.4 71.6008L272.3 86.4008H273.4Z" fill="#F9F3F1"/>
<path d="M71.0047 171.002L72.7047 157.402H67.8047V171.702L71.0047 171.002Z" fill="#F9F3F1"/>
<path d="M67.7031 173.801V179.401H73.8031L71.5031 173.801H67.7031Z" fill="#F9F3F1"/>
<path d="M117.203 267.602V262.902L107.203 256.602V267.602H117.203Z" fill="#F9F3F1"/>
<path d="M140.4 271.503V268.803L120 268.703V271.503H140.4Z" fill="#F9F3F1"/>
<path d="M143.805 271.503H164.605V268.703H143.805V271.503Z" fill="#F9F3F1"/>
<path d="M167.602 271.602H188.802V268.602H167.602V271.602Z" fill="#F9F3F1"/>
<path d="M191.805 271.602H212.605V269.402L191.805 268.602V271.602Z" fill="#F9F3F1"/>
<path d="M233.806 271.7V268.5L215.406 269.3V271.7H233.806Z" fill="#F9F3F1"/>
<path d="M256.602 269.703V262.203L251.002 267.403L239.602 268.203V269.703H256.602Z" fill="#F9F3F1"/>
<path d="M272.205 239.203L265.305 257.103H272.405L272.205 239.203Z" fill="#F9F3F1"/>
<path d="M237.102 165.402L249.802 176.902V164.102H238.202L237.102 165.402Z" fill="#F9F3F1"/>
<path d="M249 161.702L248.9 149.102L239.5 161.702H249Z" fill="#F9F3F1"/>
<path d="M120.203 87.3024L118.703 94.3024H132.703V82.9023H129.703L120.203 87.3024Z" fill="#616A5C"/>
<path d="M115.202 115.103L119.402 106.903L118.502 97.5031L117.502 97.2031L113.102 115.103H115.202Z" fill="#B7B8B0"/>
<path d="M104.302 139.003L112.502 119.203H110.902L103.102 139.003H104.302Z" fill="#BEBEB7"/>
<path d="M103.302 142.801H102.002L96.6016 156.101L97.1016 158.001L103.302 142.801Z" fill="#A4A79E"/>
<path d="M100.503 176.502L97.5031 165.602H95.8031L95.7031 168.102L99.1031 177.402L100.503 176.502Z" fill="#A5A79E"/>
<path d="M102.203 185.602L111.203 206.602H112.903L104.003 185.602H102.203Z" fill="#ABADA4"/>
<path d="M132.305 230.801L121.805 233.901L122.205 237.801L129.305 241.501L132.305 230.801Z" fill="#364231"/>
<path d="M244.802 93.7L245.002 83.2L232.602 83V94.3L244.802 93.7Z" fill="#192815"/>
<path d="M153.702 118.102V106.902H143.602V114.702L153.702 118.102Z" fill="#071803"/>
<path d="M195.203 106.5V118.7H207.203V106.5H195.203Z" fill="#071803"/>
<path d="M206.9 121.6V119.5H196L204.8 126L206.9 121.6Z" fill="#071803"/>
<path d="M215.602 106.703H208.602V115.503H210.902L215.602 106.703Z" fill="#071803"/>
<path d="M164.103 141.101L172.203 131.301H162.203L156.203 141.901L164.103 141.101Z" fill="#071803"/>
<path d="M148.5 162.202L149.7 165.102H160.3L161.9 145.102H155.7L148.5 162.202Z" fill="#071803"/>
<path d="M165.205 189.102V185.502L156.405 169.102H149.805L158.205 189.102H165.205Z" fill="#071803"/>
<path d="M165.206 195.7V191.5H158.906L160.306 195.7H165.206Z" fill="#071803"/>
<path d="M208.703 162.202L211.003 167.202L221.303 164.802L212.703 157.602L208.703 162.202Z" fill="#B5B6AF"/>
<path d="M208.006 203.502L201.206 199.902L197.406 204.402V219.402L207.806 220.502L208.006 203.502Z" fill="#071803"/>
<path d="M217.306 220.102L212.506 210.102H209.906V220.202L217.306 220.102Z" fill="#071803"/>
<path d="M139.603 208.402H138.203L141.403 218.402L143.103 218.502V215.002L139.603 208.402Z" fill="#071803"/>
<path d="M152.502 219.502V208.102L144.602 215.502V219.302L152.502 219.502Z" fill="#071803"/>
<path d="M236 233.5V239.7H246.6L247.1 239V233.8L236 233.5Z" fill="#081904"/>
<path d="M246.002 240.5H236.102V244.7H241.102L244.102 243.1L246.002 240.5Z" fill="#414D3C"/>
<path d="M272 263.7H276.4V259.5H272V263.7Z" fill="#F9F3F1"/>
<path d="M263.203 260.703V263.503H270.203V260.703H263.203Z" fill="#F9F3F1"/>
<path d="M117.4 271.602V268.602H109V271.602H117.4Z" fill="#F9F3F1"/>
<path d="M311.602 255.5L313.002 266.2L315.602 276.7H317.502L312.602 255.5H311.602Z" fill="#979B91"/>
<path d="M307.203 295.5V297.7H318.003V295.5H307.203Z" fill="#F6F1EE"/>
<path d="M307 298.902V307.402L316.9 307.502L318.6 298.902H307Z" fill="#AEB0A7"/>
<path d="M78.3047 306.301H86.1047L87.8047 295.801L76.8047 297.601L78.3047 306.301Z" fill="#C5C4BD"/>
<path d="M252.902 301.201L261.002 299.701L252.102 295.301L252.902 301.201Z" fill="#EDE8E5"/>
<path d="M253.402 307.303L264.702 307.403V300.703L252.602 302.603L253.402 307.303Z" fill="#A3A69C"/>
<path d="M266.305 300.703V307.103H278.105V301.003L266.305 300.703Z" fill="#A3A69C"/>
<path d="M279.703 301.002V307.202H294.703V304.102L285.303 300.902L279.703 301.002Z" fill="#A3A69C"/>
</svg>
